<mxfile host="app.diagrams.net" agent="Mozilla/5.0 (Windows NT 10.0; Win64; x64) AppleWebKit/537.36 (KHTML, like Gecko) Chrome/140.0.0.0 Safari/537.36" version="26.1.3">
  <diagram name="Page-1" id="1DinRsEgJNuF4ffR-PU4">
    <mxGraphModel dx="1050" dy="557" grid="1" gridSize="10" guides="1" tooltips="1" connect="1" arrows="1" fold="1" page="1" pageScale="1" pageWidth="827" pageHeight="1169" math="0" shadow="0">
      <root>
        <mxCell id="0" />
        <mxCell id="1" parent="0" />
        <mxCell id="EVAOJBNQkqYUyT802Wcd-8" style="edgeStyle=orthogonalEdgeStyle;rounded=0;orthogonalLoop=1;jettySize=auto;html=1;entryX=0;entryY=0.5;entryDx=0;entryDy=0;" parent="1" source="EVAOJBNQkqYUyT802Wcd-2" target="EVAOJBNQkqYUyT802Wcd-4" edge="1">
          <mxGeometry relative="1" as="geometry" />
        </mxCell>
        <mxCell id="EVAOJBNQkqYUyT802Wcd-2" value="Actor" style="shape=umlActor;verticalLabelPosition=bottom;verticalAlign=top;html=1;outlineConnect=0;" parent="1" vertex="1">
          <mxGeometry x="110" y="110" width="30" height="60" as="geometry" />
        </mxCell>
        <mxCell id="EVAOJBNQkqYUyT802Wcd-10" value="" style="edgeStyle=orthogonalEdgeStyle;rounded=0;orthogonalLoop=1;jettySize=auto;html=1;" parent="1" source="EVAOJBNQkqYUyT802Wcd-4" target="EVAOJBNQkqYUyT802Wcd-9" edge="1">
          <mxGeometry relative="1" as="geometry" />
        </mxCell>
        <mxCell id="EVAOJBNQkqYUyT802Wcd-4" value="Resignation Form" style="rounded=0;whiteSpace=wrap;html=1;" parent="1" vertex="1">
          <mxGeometry x="240" y="110" width="120" height="60" as="geometry" />
        </mxCell>
        <mxCell id="EVAOJBNQkqYUyT802Wcd-6" value="Resign" style="text;html=1;strokeColor=none;fillColor=none;align=center;verticalAlign=middle;whiteSpace=wrap;rounded=0;" parent="1" vertex="1">
          <mxGeometry x="170" y="100" width="60" height="30" as="geometry" />
        </mxCell>
        <mxCell id="EVAOJBNQkqYUyT802Wcd-12" value="" style="edgeStyle=orthogonalEdgeStyle;rounded=0;orthogonalLoop=1;jettySize=auto;html=1;" parent="1" source="EVAOJBNQkqYUyT802Wcd-9" target="EVAOJBNQkqYUyT802Wcd-11" edge="1">
          <mxGeometry relative="1" as="geometry" />
        </mxCell>
        <mxCell id="EVAOJBNQkqYUyT802Wcd-9" value="Manager approval&lt;br&gt;without checklist" style="whiteSpace=wrap;html=1;rounded=0;" parent="1" vertex="1">
          <mxGeometry x="440" y="110" width="120" height="60" as="geometry" />
        </mxCell>
        <mxCell id="EVAOJBNQkqYUyT802Wcd-14" value="" style="edgeStyle=orthogonalEdgeStyle;rounded=0;orthogonalLoop=1;jettySize=auto;html=1;" parent="1" source="EVAOJBNQkqYUyT802Wcd-11" target="EVAOJBNQkqYUyT802Wcd-13" edge="1">
          <mxGeometry relative="1" as="geometry" />
        </mxCell>
        <mxCell id="EVAOJBNQkqYUyT802Wcd-11" value="HR Approval&lt;br&gt;without checklist" style="whiteSpace=wrap;html=1;rounded=0;" parent="1" vertex="1">
          <mxGeometry x="440" y="250" width="120" height="60" as="geometry" />
        </mxCell>
        <mxCell id="EVAOJBNQkqYUyT802Wcd-16" value="" style="edgeStyle=orthogonalEdgeStyle;rounded=0;orthogonalLoop=1;jettySize=auto;html=1;" parent="1" source="EVAOJBNQkqYUyT802Wcd-13" target="EVAOJBNQkqYUyT802Wcd-15" edge="1">
          <mxGeometry relative="1" as="geometry" />
        </mxCell>
        <mxCell id="EVAOJBNQkqYUyT802Wcd-13" value="Off boarding checklist&lt;br&gt;Expenses&lt;br&gt;Inventory&lt;br&gt;" style="whiteSpace=wrap;html=1;rounded=0;" parent="1" vertex="1">
          <mxGeometry x="440" y="360" width="120" height="60" as="geometry" />
        </mxCell>
        <mxCell id="EVAOJBNQkqYUyT802Wcd-15" value="Complete" style="ellipse;whiteSpace=wrap;html=1;rounded=0;" parent="1" vertex="1">
          <mxGeometry x="250" y="350" width="80" height="80" as="geometry" />
        </mxCell>
        <mxCell id="wSO8dloLG18Ct7L291vo-3" value="" style="edgeStyle=orthogonalEdgeStyle;rounded=0;orthogonalLoop=1;jettySize=auto;html=1;" parent="1" source="wSO8dloLG18Ct7L291vo-1" target="wSO8dloLG18Ct7L291vo-2" edge="1">
          <mxGeometry relative="1" as="geometry" />
        </mxCell>
        <mxCell id="wSO8dloLG18Ct7L291vo-1" value="Start" style="ellipse;whiteSpace=wrap;html=1;fillColor=#f5f5f5;strokeColor=#666666;fontColor=#333333;" parent="1" vertex="1">
          <mxGeometry x="370" y="660" width="120" height="80" as="geometry" />
        </mxCell>
        <mxCell id="wSO8dloLG18Ct7L291vo-5" value="" style="edgeStyle=orthogonalEdgeStyle;rounded=0;orthogonalLoop=1;jettySize=auto;html=1;" parent="1" source="wSO8dloLG18Ct7L291vo-2" target="wSO8dloLG18Ct7L291vo-4" edge="1">
          <mxGeometry relative="1" as="geometry" />
        </mxCell>
        <mxCell id="wSO8dloLG18Ct7L291vo-2" value="Input Job Details" style="whiteSpace=wrap;html=1;fillColor=#dae8fc;strokeColor=#6c8ebf;" parent="1" vertex="1">
          <mxGeometry x="370" y="780" width="120" height="60" as="geometry" />
        </mxCell>
        <mxCell id="wSO8dloLG18Ct7L291vo-6" style="edgeStyle=orthogonalEdgeStyle;rounded=0;orthogonalLoop=1;jettySize=auto;html=1;entryX=0;entryY=0.5;entryDx=0;entryDy=0;" parent="1" source="wSO8dloLG18Ct7L291vo-4" target="wSO8dloLG18Ct7L291vo-2" edge="1">
          <mxGeometry relative="1" as="geometry">
            <Array as="points">
              <mxPoint x="280" y="920" />
              <mxPoint x="280" y="810" />
            </Array>
          </mxGeometry>
        </mxCell>
        <mxCell id="wSO8dloLG18Ct7L291vo-9" value="" style="edgeStyle=orthogonalEdgeStyle;rounded=0;orthogonalLoop=1;jettySize=auto;html=1;" parent="1" source="wSO8dloLG18Ct7L291vo-4" target="wSO8dloLG18Ct7L291vo-8" edge="1">
          <mxGeometry relative="1" as="geometry" />
        </mxCell>
        <mxCell id="wSO8dloLG18Ct7L291vo-4" value="Approved" style="rhombus;whiteSpace=wrap;html=1;fillColor=#ffe6cc;strokeColor=#d79b00;" parent="1" vertex="1">
          <mxGeometry x="390" y="880" width="80" height="80" as="geometry" />
        </mxCell>
        <mxCell id="wSO8dloLG18Ct7L291vo-7" value="No" style="text;html=1;align=center;verticalAlign=middle;whiteSpace=wrap;rounded=0;" parent="1" vertex="1">
          <mxGeometry x="300" y="890" width="60" height="30" as="geometry" />
        </mxCell>
        <mxCell id="wSO8dloLG18Ct7L291vo-8" value="Receive Applications " style="whiteSpace=wrap;html=1;fillColor=#dae8fc;strokeColor=#6c8ebf;" parent="1" vertex="1">
          <mxGeometry x="370" y="993" width="120" height="60" as="geometry" />
        </mxCell>
        <mxCell id="wSO8dloLG18Ct7L291vo-10" value="Yes" style="text;html=1;align=center;verticalAlign=middle;resizable=0;points=[];autosize=1;strokeColor=none;fillColor=none;" parent="1" vertex="1">
          <mxGeometry x="420" y="960" width="40" height="30" as="geometry" />
        </mxCell>
        <mxCell id="wSO8dloLG18Ct7L291vo-23" style="edgeStyle=orthogonalEdgeStyle;rounded=0;orthogonalLoop=1;jettySize=auto;html=1;entryX=1;entryY=0.5;entryDx=0;entryDy=0;" parent="1" source="wSO8dloLG18Ct7L291vo-17" target="wSO8dloLG18Ct7L291vo-22" edge="1">
          <mxGeometry relative="1" as="geometry" />
        </mxCell>
        <mxCell id="wSO8dloLG18Ct7L291vo-20" value="End" style="ellipse;whiteSpace=wrap;html=1;fillColor=#f8cecc;strokeColor=#b85450;" parent="1" vertex="1">
          <mxGeometry x="139" y="1110" width="80" height="80" as="geometry" />
        </mxCell>
        <mxCell id="wSO8dloLG18Ct7L291vo-21" value="Yes" style="text;html=1;align=center;verticalAlign=middle;whiteSpace=wrap;rounded=0;" parent="1" vertex="1">
          <mxGeometry x="470" y="1120" width="60" height="30" as="geometry" />
        </mxCell>
        <mxCell id="wSO8dloLG18Ct7L291vo-24" style="edgeStyle=orthogonalEdgeStyle;rounded=0;orthogonalLoop=1;jettySize=auto;html=1;entryX=1;entryY=0.5;entryDx=0;entryDy=0;" parent="1" source="wSO8dloLG18Ct7L291vo-22" target="wSO8dloLG18Ct7L291vo-20" edge="1">
          <mxGeometry relative="1" as="geometry" />
        </mxCell>
        <mxCell id="wSO8dloLG18Ct7L291vo-22" value="Reject" style="rounded=0;whiteSpace=wrap;html=1;fillColor=#fff2cc;strokeColor=#d6b656;" parent="1" vertex="1">
          <mxGeometry x="260" y="1120" width="60" height="60" as="geometry" />
        </mxCell>
        <mxCell id="wSO8dloLG18Ct7L291vo-57" style="edgeStyle=orthogonalEdgeStyle;rounded=0;orthogonalLoop=1;jettySize=auto;html=1;entryX=1;entryY=0.5;entryDx=0;entryDy=0;" parent="1" source="wSO8dloLG18Ct7L291vo-30" target="wSO8dloLG18Ct7L291vo-32" edge="1">
          <mxGeometry relative="1" as="geometry">
            <Array as="points">
              <mxPoint x="750" y="1305" />
            </Array>
          </mxGeometry>
        </mxCell>
        <mxCell id="wSO8dloLG18Ct7L291vo-30" value="Receive Feedback" style="whiteSpace=wrap;html=1;fillColor=#e1d5e7;strokeColor=#9673a6;" parent="1" vertex="1">
          <mxGeometry x="690" y="1120" width="120" height="60" as="geometry" />
        </mxCell>
        <mxCell id="wSO8dloLG18Ct7L291vo-51" style="edgeStyle=orthogonalEdgeStyle;rounded=0;orthogonalLoop=1;jettySize=auto;html=1;entryX=0.5;entryY=0;entryDx=0;entryDy=0;" parent="1" source="wSO8dloLG18Ct7L291vo-32" target="wSO8dloLG18Ct7L291vo-39" edge="1">
          <mxGeometry relative="1" as="geometry" />
        </mxCell>
        <mxCell id="wSO8dloLG18Ct7L291vo-65" style="edgeStyle=orthogonalEdgeStyle;rounded=0;orthogonalLoop=1;jettySize=auto;html=1;entryX=0.5;entryY=1;entryDx=0;entryDy=0;" parent="1" source="wSO8dloLG18Ct7L291vo-32" target="wSO8dloLG18Ct7L291vo-52" edge="1">
          <mxGeometry relative="1" as="geometry" />
        </mxCell>
        <mxCell id="wSO8dloLG18Ct7L291vo-32" value="Further round requrired" style="rhombus;whiteSpace=wrap;html=1;fillColor=#ffe6cc;strokeColor=#d79b00;" parent="1" vertex="1">
          <mxGeometry x="540" y="1250" width="120" height="110" as="geometry" />
        </mxCell>
        <mxCell id="wSO8dloLG18Ct7L291vo-38" value="No" style="text;html=1;align=center;verticalAlign=middle;whiteSpace=wrap;rounded=0;" parent="1" vertex="1">
          <mxGeometry x="434" y="1350" width="60" height="30" as="geometry" />
        </mxCell>
        <mxCell id="wSO8dloLG18Ct7L291vo-40" style="edgeStyle=orthogonalEdgeStyle;rounded=0;orthogonalLoop=1;jettySize=auto;html=1;entryX=0.5;entryY=1;entryDx=0;entryDy=0;" parent="1" source="wSO8dloLG18Ct7L291vo-39" target="wSO8dloLG18Ct7L291vo-20" edge="1">
          <mxGeometry relative="1" as="geometry" />
        </mxCell>
        <mxCell id="wSO8dloLG18Ct7L291vo-59" value="" style="edgeStyle=orthogonalEdgeStyle;rounded=0;orthogonalLoop=1;jettySize=auto;html=1;" parent="1" source="wSO8dloLG18Ct7L291vo-39" target="wSO8dloLG18Ct7L291vo-42" edge="1">
          <mxGeometry relative="1" as="geometry" />
        </mxCell>
        <mxCell id="wSO8dloLG18Ct7L291vo-39" value="User Selected" style="rhombus;whiteSpace=wrap;html=1;fillColor=#ffe6cc;strokeColor=#d79b00;" parent="1" vertex="1">
          <mxGeometry x="370" y="1380" width="130" height="100" as="geometry" />
        </mxCell>
        <mxCell id="wSO8dloLG18Ct7L291vo-45" value="" style="edgeStyle=orthogonalEdgeStyle;rounded=0;orthogonalLoop=1;jettySize=auto;html=1;" parent="1" source="wSO8dloLG18Ct7L291vo-42" target="wSO8dloLG18Ct7L291vo-44" edge="1">
          <mxGeometry relative="1" as="geometry" />
        </mxCell>
        <mxCell id="wSO8dloLG18Ct7L291vo-42" value="Onboard&amp;nbsp;&lt;br&gt;&amp;amp;&amp;nbsp;Activate Payroll" style="whiteSpace=wrap;html=1;fillColor=#d5e8d4;strokeColor=#82b366;" parent="1" vertex="1">
          <mxGeometry x="374" y="1510" width="120" height="60" as="geometry" />
        </mxCell>
        <mxCell id="wSO8dloLG18Ct7L291vo-67" style="edgeStyle=orthogonalEdgeStyle;rounded=0;orthogonalLoop=1;jettySize=auto;html=1;entryX=0;entryY=0.5;entryDx=0;entryDy=0;" parent="1" source="wSO8dloLG18Ct7L291vo-44" target="wSO8dloLG18Ct7L291vo-20" edge="1">
          <mxGeometry relative="1" as="geometry" />
        </mxCell>
        <mxCell id="wSO8dloLG18Ct7L291vo-44" value="Send Welcome Mail" style="whiteSpace=wrap;html=1;fillColor=#d5e8d4;strokeColor=#82b366;" parent="1" vertex="1">
          <mxGeometry x="373" y="1613" width="120" height="60" as="geometry" />
        </mxCell>
        <mxCell id="wSO8dloLG18Ct7L291vo-49" value="" style="edgeStyle=orthogonalEdgeStyle;rounded=0;orthogonalLoop=1;jettySize=auto;html=1;" parent="1" source="wSO8dloLG18Ct7L291vo-8" target="wSO8dloLG18Ct7L291vo-17" edge="1">
          <mxGeometry relative="1" as="geometry">
            <mxPoint x="430" y="1053" as="sourcePoint" />
            <mxPoint x="430" y="1179.9999999999998" as="targetPoint" />
          </mxGeometry>
        </mxCell>
        <mxCell id="wSO8dloLG18Ct7L291vo-53" style="edgeStyle=orthogonalEdgeStyle;rounded=0;orthogonalLoop=1;jettySize=auto;html=1;entryX=0;entryY=0.5;entryDx=0;entryDy=0;" parent="1" source="wSO8dloLG18Ct7L291vo-17" target="wSO8dloLG18Ct7L291vo-52" edge="1">
          <mxGeometry relative="1" as="geometry" />
        </mxCell>
        <mxCell id="wSO8dloLG18Ct7L291vo-17" value="Is Application&lt;br&gt;&amp;nbsp;Valid?" style="rhombus;whiteSpace=wrap;html=1;fillColor=#ffe6cc;strokeColor=#d79b00;" parent="1" vertex="1">
          <mxGeometry x="374" y="1102.5" width="112" height="95" as="geometry" />
        </mxCell>
        <mxCell id="wSO8dloLG18Ct7L291vo-54" style="edgeStyle=orthogonalEdgeStyle;rounded=0;orthogonalLoop=1;jettySize=auto;html=1;" parent="1" source="wSO8dloLG18Ct7L291vo-52" edge="1">
          <mxGeometry relative="1" as="geometry">
            <mxPoint x="690" y="1150" as="targetPoint" />
          </mxGeometry>
        </mxCell>
        <mxCell id="wSO8dloLG18Ct7L291vo-52" value="Conduct Interview" style="whiteSpace=wrap;html=1;fillColor=#e1d5e7;strokeColor=#9673a6;" parent="1" vertex="1">
          <mxGeometry x="540" y="1120" width="120" height="60" as="geometry" />
        </mxCell>
        <mxCell id="wSO8dloLG18Ct7L291vo-60" value="No" style="text;html=1;align=center;verticalAlign=middle;whiteSpace=wrap;rounded=0;" parent="1" vertex="1">
          <mxGeometry x="330" y="1120" width="60" height="30" as="geometry" />
        </mxCell>
        <mxCell id="wSO8dloLG18Ct7L291vo-62" value="Yes" style="text;html=1;align=center;verticalAlign=middle;whiteSpace=wrap;rounded=0;" parent="1" vertex="1">
          <mxGeometry x="550" y="1203" width="60" height="30" as="geometry" />
        </mxCell>
        <mxCell id="wSO8dloLG18Ct7L291vo-63" value="No" style="text;html=1;align=center;verticalAlign=middle;whiteSpace=wrap;rounded=0;" parent="1" vertex="1">
          <mxGeometry x="270" y="1400" width="60" height="30" as="geometry" />
        </mxCell>
        <mxCell id="wSO8dloLG18Ct7L291vo-64" value="Yes" style="text;html=1;align=center;verticalAlign=middle;whiteSpace=wrap;rounded=0;" parent="1" vertex="1">
          <mxGeometry x="430" y="1480" width="60" height="30" as="geometry" />
        </mxCell>
        <mxCell id="KRvsWD2Y7judpDCp-eMi-1" value="" style="rounded=0;whiteSpace=wrap;html=1;" parent="1" vertex="1">
          <mxGeometry x="390" y="2260" width="280" height="30" as="geometry" />
        </mxCell>
        <mxCell id="KRvsWD2Y7judpDCp-eMi-2" value="Job Title" style="text;html=1;align=center;verticalAlign=middle;whiteSpace=wrap;rounded=0;" parent="1" vertex="1">
          <mxGeometry x="260" y="2260" width="60" height="30" as="geometry" />
        </mxCell>
        <mxCell id="KRvsWD2Y7judpDCp-eMi-8" value="+" style="rounded=0;whiteSpace=wrap;html=1;" parent="1" vertex="1">
          <mxGeometry x="230" y="2230" width="510" height="430" as="geometry" />
        </mxCell>
        <mxCell id="KRvsWD2Y7judpDCp-eMi-3" value="" style="rounded=0;whiteSpace=wrap;html=1;" parent="1" vertex="1">
          <mxGeometry x="400" y="2350" width="280" height="180" as="geometry" />
        </mxCell>
        <mxCell id="KRvsWD2Y7judpDCp-eMi-4" value="Job Description" style="text;html=1;align=center;verticalAlign=middle;whiteSpace=wrap;rounded=0;" parent="1" vertex="1">
          <mxGeometry x="260" y="2338" width="60" height="30" as="geometry" />
        </mxCell>
        <mxCell id="KRvsWD2Y7judpDCp-eMi-6" value="Submit" style="rounded=0;whiteSpace=wrap;html=1;" parent="1" vertex="1">
          <mxGeometry x="310" y="2600" width="100" height="40" as="geometry" />
        </mxCell>
        <mxCell id="KRvsWD2Y7judpDCp-eMi-7" value="Cancel" style="rounded=0;whiteSpace=wrap;html=1;" parent="1" vertex="1">
          <mxGeometry x="450" y="2600" width="100" height="40" as="geometry" />
        </mxCell>
        <mxCell id="KRvsWD2Y7judpDCp-eMi-10" value="" style="rounded=0;whiteSpace=wrap;html=1;" parent="1" vertex="1">
          <mxGeometry x="400" y="2290" width="270" height="30" as="geometry" />
        </mxCell>
        <mxCell id="KRvsWD2Y7judpDCp-eMi-11" value="Job Title" style="text;html=1;align=center;verticalAlign=middle;whiteSpace=wrap;rounded=0;" parent="1" vertex="1">
          <mxGeometry x="260" y="2290" width="60" height="30" as="geometry" />
        </mxCell>
        <mxCell id="KRvsWD2Y7judpDCp-eMi-12" value="&lt;font style=&quot;font-size: 18px;&quot;&gt;Request a New Job&lt;/font&gt;" style="text;html=1;align=center;verticalAlign=middle;whiteSpace=wrap;rounded=0;" parent="1" vertex="1">
          <mxGeometry x="374" y="2240" width="196" height="30" as="geometry" />
        </mxCell>
        <mxCell id="KRvsWD2Y7judpDCp-eMi-13" value="" style="rounded=0;whiteSpace=wrap;html=1;" parent="1" vertex="1">
          <mxGeometry x="400" y="2550" width="270" height="30" as="geometry" />
        </mxCell>
        <mxCell id="KRvsWD2Y7judpDCp-eMi-14" value="Reason for request" style="text;html=1;align=center;verticalAlign=middle;whiteSpace=wrap;rounded=0;" parent="1" vertex="1">
          <mxGeometry x="260" y="2550" width="120" height="30" as="geometry" />
        </mxCell>
        <mxCell id="KRvsWD2Y7judpDCp-eMi-15" value="" style="rounded=0;whiteSpace=wrap;html=1;" parent="1" vertex="1">
          <mxGeometry x="50" y="2750" width="780" height="380" as="geometry" />
        </mxCell>
        <mxCell id="KRvsWD2Y7judpDCp-eMi-17" value="&lt;font style=&quot;font-size: 18px;&quot;&gt;Job Request List&lt;/font&gt;" style="text;html=1;align=center;verticalAlign=middle;whiteSpace=wrap;rounded=0;" parent="1" vertex="1">
          <mxGeometry x="214" y="2760" width="196" height="30" as="geometry" />
        </mxCell>
        <mxCell id="KRvsWD2Y7judpDCp-eMi-33" value="" style="shape=image;verticalLabelPosition=bottom;labelBackgroundColor=default;verticalAlign=top;aspect=fixed;imageAspect=0;image=data:image/png,iVBORw0KGgoAAAANSUhEUgAAAx8AAAG1CAYAAACYvEkEAAAAAXNSR0IArs4c6QAAAARnQU1BAACxjwv8YQUAAAAJcEhZcwAADsMAAA7DAcdvqGQAALvOSURBVHhe7P17fFTVvT/+v/j9VR2UCEcTyQ3IpWkNYeLRWnMpKZAPUcPNGzmUDyafEJ1CIBQ5xcJBo3zgyClFgmBzBL4BH9QTSqkgsUwM2NBcLOrHTGKsMYCSC3FGHmCiGeh/8/uDWcu91+yZTJLJ5MLr+Xjkoczs2TOz95q193ut91prnMvlcoGIiIiIiGiI/f/UB4iIiIiIiIYCgw8iIiIiIgqKcd7SrmytX6oPERERERHRGGWOn6o+FHA+g48pk+9SH6abwMWur3nuaVRi2R3deP5GP55DCgSWo+FxsevroAQfTLsiIiIiIqKgYPBBRERERERBweCDiIiIiIiCgsEHEREREREFBYMPIiIiIiIKCgYfREREREQUFAw+iIiIiIgoKBh8EBERERFRUDD4ICIiIiKioGDwQUREREREQcHgg4iIiIiIgoLBBxERERERBQWDDyIiIiIiCgoGH0REiq+//hopaTMxZWqcx9/adb9WN79pnT79HqZMjcPinF/g2rVr6tPD5tq1a1ic8wuPczcSP+twGqnnj4jGNgYfRET98Oejb43qm7Xfl76OKVPj8PvS19Wnbgpnz36AOf/rIXz99dfqU6PCzX7+iGj0Y/BBROTFD265BSfefgsXvzyHi1+ew/59/w0AaGz6BBcufKFuTiPQ/n3/Lc/fibffwg9uuQVdl7rwySfN6qZERBQEDD6IiPw0fXoiJodPxj+vX9e1nK9d92tdao/aKi3SW6ZMjUPCj5Pw97+fxeKcX8geFJHmlZI2U+7X6DFoWr7Fn5oG9sknzUj4cZLu/T75pFnub9u23wIAtm37re6zqqlm4nVa2u+RkjYTdrtd9/xIFxMzDTOSpgMAWs+dl4/3dUzVY/P70tfx+9LXdcdIlIHTp9+TrzN6TD0/6vlV30u8vq/zh36Ww9F4/ohobGDwQUTkp08+aUbXpS784JZbcNddd8mxBX8++pZuu23bfitv/E6ffg/5y5+Rz/3z+nXk/NtSnD37geYV/lm77tfy5lP489G35M3yJ58044nFS/DP69fl8/+8fh1PLF6Cz1paNK/S++STZvwsYw66LnXJx8TrxM21+j26LnVh43+8IP89Gly48AUamz4BAMTHxQJ+HNOvv/4aCx99Qndstm37rcdr/HH69HuYN3+R7vx0XerCwkefwNdff234XgCQv/wZ1NTW6R7TGkg5HI3nj4jGBgYfRERe/PP6dcybv0i2Foubt4cfzsL06Yl4//2/4+zZD/DAAz/BPz5t1KX2VFefwbVr1/DOSSsA4NHHFsn0n0cfW6S8U98++aQZf/mLFZPDJ+ODs3W4+OU5fHC2DpPDJ+Pvfz8rb17/ef061q//d/le//i0EX+rPoWZP/sZ6mvPYP36fwcAuc0vLU+j7OAbHq9bv/7f8c/r11FbVw8A8ntov+tAvkew5S9/Rp4/ceP/wAM/wYMP/tSvYyoCTu02Iv2uP65du4bX9+4HlFSwRx9bJNPAHI6vcfXqN7qy8o9PG/HB2To89ugir+evP+VwtJ0/Ihp7GHwQEfXD+vX/jh3b/wvQpO6cPfsBfnzPDN0NbkdnJy5fvoxLnZcAAI88lCX3kffUMvzgllvkv/0hAouuS134yQOpmDI1Dj95IBVdl7pw9eo3cDi+xl133YUf3HKLTMmZMjUO9973Uzgc3gdXX7t2TX5G7etEy/658+d12zxdkI9bb70VGOD3GG6PPrYIh8v/gFtvvdWvYyrO8U9/+gDuuusuAMCDD/4UDzzwE2XPvvX29qKjsxNQAiLRW9F67jxCQ+/CxIl34M9H35LP//ieGR7pb6r+lMPRfv6IaPRj8EFE5IUYcP6PTxt93mxqW6rFX33tGdx5553qpn4TreAqbcu1+Gv5RxOmT0/E9OmJOHL4Td0N5T+vX8czv1ypG1fgjbZFXvyJQGu0Et/JVyu/r2M6UNqATUudxED8/dLyNO666y4c+/MRTA6frHvNylVr+gxAMETlkIgo0Bh8EBH14dZbb8V/bPwNfnDLLSjZtVveCIpxA3/5i1U+9sknzSh4+pe4du0abr31VoRHhAMAXt+7X07PK9KcVNpZmGrr6nXbiF6Ns2c/wPvv/x1w94YszvmFDCyuXbsGp9OJln80yZvPRx9bJFvxtc6dv9Fa7u0zikHVvrbx9j1Goud+vQ6Twyfjz0ffkgPA/TmmRudYpDkZEelN2vElADB+/HhERkTgn9evo+zgG/Lxtet+7TEgvb72jDx/Iv1NDR7F+YOXzziYckhENJQYfBAR+WH69EQ8/HCW7uZRpN/8UzM2ZN78RaiqOoX/eL4Y0KRbaVNi1IHB4sYUmpQcdUCzeH/tNj95IBVnz36AVat/hWvXruE/ni9Gzr8tlSk74r1mJE1HTMw03f5Eas/vS1+X6TfazygGVYsbY3++x0h211134X8v/QWguQH355hqZzgT51g7cFuIi70RAIjjqg4sv/XWW/F0Qb5uG3EMRc/G70tf16VkifMwOXyyRy+M9vwFqhwSEQUDgw8iIj+Jm3QxG9Ktt96Kw+V/8Ejp0Y4LmT17lm6A8gMP/AQlO3dottb3rAglO3d4pHrt2P5fcsCxoB3DYPT8Aw/8BGX/316Z5/9Ly9Men3f69ET8rfqULt1HpAfNnj0LMPgeP7jlFuzf998eKUIj2WOPLsTk8Mk4e/YD5P2fAly7ds3wmGmPqZoK5e17P7Vsqe58PfrYIo/9zp49Sw4EFyaHT8bfqk9h+vRE/NLytMdg9snhk3Hsz0fkeBOj8zeQcujtexARDbVxLpfLpT4IALbWLzFl8o3KbrT5xGC6SdX69f+O+LhY5C9/Bj+45RYcOfymR8uS1u9LX8e2bb/F+vX/jl9anlafHlMudn09Ks+9t2kq4T7fI+W8iSkv/Sl3/li77tf489G3PG4yb0ajpeyKMsBzpjdazp+oa65e/SYgv+GxZLScQyPqdMRa+/f9twzEaegFqxyJ66fWzXyuL3Z9DXP8VPXhgLupez5Ed7qWWIRJXWSKRrdt234rF3Qbbkblzh/X3HP5q4u/aWdRIiKiwMtf/ozHoo00eonrqRp4wH2uxT2gt+uuP772slAsjdHgY/r0RDngUszZDmUmFzGzSH3tmUHPakIjizqbjEg1OHv2A5n/PJwCXe5mz56Fi1+ek2kiREQ0cOrsZyKdTayZQqOfmBBCu36P9n4h/O7JDBiG0JgMPvyljUrb2tqwOOcXsstVDObz1QMiXi8GBg4kMqahp811FguHCb8vfV03uFM93+rzau+JWga0LRziucU5v8Df/34WCT9Owtp1v/ZoDREtKylpM3H69HtI+HGS3J8Y7Hv69Hv48T0zcPbsB3JQqShv3nrr1q77te6za1vt/HlPGjoMGEe3QDcg0Mgmepc7OjvR29sLGNT96vVf1LHaOlitoz/5pFlX96r7AOvxIfO1e42fyIgIjB8/Xj4u6uZnn70xCYS36y40mTJG5+/3pa/LNYPEOkLimi/OqfYc+XrMW/kZzW7q4GMwPvmkGT/LmKMbX/DP69fxxOIlHpUHDT+R6qSdynTtul97zCgkBhJDM85HSztQ1agMdF3qws8y5ujKQHtHB3L/T4HPMUhwvzZ/+TO67fyd31/LW3fytm2/9ai8jN5z0wsvssWHiMhNTJ8sblSN6n7t9f/atWvI+z8FHtMx//noWzJ4+MRgbKq6D9bjQ0fcE2hnfzMK/rwxGh/0z36sqdSXtQZjUbT3J6Mdgw+3W265BYfL/yBbyMViTd4W2BLzo69f/+8e87HX1tWrm9MI88knzfjLX6y6LleRoid6R86dP++RwvXB2To5QFiUAW0X/aOP3ZheU1sGvur6Cg8/nOWzPAmiPIlF7f7pntZ19uxZ8jHxmby1uoo1CLSfXZRr7ToAgijrYhYebYBGRHSz0d6QTtFMSSxWh+/r+m+U0iPqYJG6JVretfv4x6eNcuYz1uND66677sLmF1/QPfZPzVTVp0+/5/O6KwJS9ZotjvsvLU/LewpRDuprz8hZ63y55l6gVE0Je++9qj7vIUYLBh8DIAoG3K0QooISreTaxZ9oZBIVv+gOneKe37/rUpdckC0uNlZXGU2ZGodVq38FKGVAXJDgngr1ontMkfCDW25B3lPL5L+9mRw+GY89uhBwT52ZkTETAHCp81K/8oxbz90ofw8/nCWDE+06ANpWGe1ni4mZhhlJ0+VzRESkn3ban+u/GHe6+cUX5PVFbSUXC1xq93HvfT+Vi4GyHh96IsVKG9gJ2sU4jezY/l/4x6eNqK4+gylT42R6ViCIRUG19ydTpsZh957X1E1HLQYfg6QdxC7+xkpkOpYc/fMxdF3qwmRlsS51YOHFL8/Jlo1fWp72mKd/IIPWJ068A6Ghfbd2EBHR8BPXBXVNFpW3678YD7Jy1RqPXgth+vREHDn8pm7/gUzbof4RgYg459rxPUZ+X/o6fnzPDIRHhOOipudjILQBrbBj+395rNujTdsb7Rh8eOGrtVlEpVCi49+Xvj5mCsZYcvr0e7JV6qc/fQB33XWXbHU6e/YDvP/+3wF3b8jinF/Iiv/Li23IyporLyqiC1VUEkZlYO26X/crb1Sr61IXjv75GOCujKqrzwDu99EOSlZbvVTxcTdWWtZ2zWu78P3p9iUiutlNn56IotWF+Of16/i/W/4T165d8+v6/8knzei61IUZSdMREzMN0IwbEa5duwan0yln5rzoTtsVPe+sx4eWmExGHUNRW1ePfxoMRNded7XXZzEZgUi1MyLOqUqUCaPXNjd/iud+vU6WDREUjZXMGgYfXoicT7VgCmKlY21u6LZtv8W2bb/lLBPDTE2VEt3dDzzwE/zfl270WkyfnoiHH75RaeQvf0amXZ09+wFWrf4V2tra8Iuly/Dzn8+R+xFpWRkZM3HrrbcaloE/H33LY8xHf4gueNGF6y1lK3/5M16DHG3XvDgO4hhou/CJiMi3xx5dKAcmi4Yqo7rf6PqvXhu0/uP5YuT821J5fRHbiICF9fjQuXbtGuz2rwDNzKbiTzRUatOpBXHd/fTTf+gemzI1DvPm3xjvaUScQzHbVVzsjcBSvLf62k8+acbjT/6bLuVKbDNW1vVi8KGYPXuWR6qNkenTE/G36lO6xeK0eaE0sqxf/+8e05ru2P5fHuf60ccW4XD5HxAdHY1T75706EbVrpRuVAbEALGBrKb+g1tuwf59/63b355Xd8qLzK233opXd72ie97IrbfeisPlf/Dosl2//t+ZEkhE1A933XUX/vfSXwDuG83Tp98zrPu113/1PuIHt9yCLf/3RV06j9H154EHfiInNGE9PnRuvfVWvFj8gmGqlHofZ3Td/cEPfuDx2KOPLZLnSozXueuuu/Dfv9+jS60DgKeWLdW976OPLdKVBaPyhTG28vo4l8vlUh8EAFvrl0FZ2p5GnotdX/PcB9E197SMjU2f4MjhN9miNQijvewaTd8oPPrYojF/0zHazx/c6ZsLH31CNw2r9qZyrBsL55CGH8vR8LjY9TXM8VPVhwOOPR9ERKPAWBpsOFadPv2eTM/UEuk3TMklImLwQUQ04qizsInufLFGAI08n3zSjJWr1gCaNRfUWXC48BsREYMPomEncnu9LRpIJIRHhKO3txcpaTMxZWqcrifk9On3MGVqnBzUSMElZsnRTmwBJWdcu/CbmG3n+PETWJzzCzmw1NskJ0REYwWDDyKiEcZohWUx0FS7Mq+2J0RM2/i/l/6C03AOAzEFpjo1NtwDT3/60wcAzWBUoWjNWt3iZH8++hbTs4hoTGPwQUQ0CpTs2i1bzadPT8Tk8MlobPoEFy58IRep+sEttyAtNUV9KQ0x7SJhYhpNb9R5+sUMedr0LHVNCCKisYTBBxHRCGM05kO70JmY/lOsKSMWqdIuakbBo114Tg0uVGpwInqqbr31VmRkzNQ9R0Q0FjH4ICIa4cSiZmKNAABIS02RK96K8QZiAUwKPhFUXOq85DEpwNdff42///0sAMiVq4mIblYMPoiIRriyg294rJ4bEzMNM5Km4+9/P4vq6jNMuRpmIhg8e/YD/Mfz3w84v3btGlat/hW6LnVhcvhkTipBRDc9Bh9ERCOM0YBzAPjpTx+Qg8lvvfVWPF2Qj65LXTh79gOmXA2z6dMTsefVnYB70Lg4dz++ZwbOnv0AP7jlFvz37/dwMgAiuukx+CAiGgWMVjgXA88BMOVqBJg9exY+OFsnz4nwwAM/wccf/Z29HkREAMa5XC6X+iAA2Fq/5NL2N6mLXV/z3NOodLOV3dOn30P+8mcwOXwyjv35yKhvVb/Zzt9YxHNIgcByNDwudn0Nc/xU9eGAY88HEdEoIxaoy1/+DMC1PYiIaBRh8EFENIqtX//v+KXlafVhIiKiEYnBBxHRKPNLy9NyDRAGHkRENJow+CAiIiIioqBg8EFEREREREHB4IOIiIiIiIKCwQcREREREQUFgw8iIiIiIgoKBh9ERERERBQUDD6IiIiIiCgoGHwQEREREVFQMPggIiIiIqKgYPBBRERERERBweCDiIiIiIiCgsEHEREREREFxTiXy+VSHwQAW+uX6kNERERERDRGmeOnqg8FnM/gIxgfgEYennsarVh2Rzeev9GP55ACgeVoeATruDPtioiIiIiIgoLBBxERERERBQWDDyIiIiIiCgoGH0REREREFBQMPoiIiIiIKCgYfBARERERUVAw+CAiIiIioqBg8EFEREREREHB4IOIiIiIiIKCwQcREREREQUFgw8iIiIiIgoKBh9ERERERBQUDD6IiIiIiCgoGHwQERHRsHI6nXhkwWPYuWuP+tRNwdbYhHvM98HW2KQ+RTTmMPggIiIiIqKgYPBBRERERERBweCDiIiIRhSn04kly/JgraxCYvL9CLlzMkLunOyRlmV3OHTPP7LgMTidTsCdyrRkWR5q6+pxd1QMLIVFct+PLHhMvubuqBhdupO6T/V5ALAUFsnnQ+6cDGtlVb+et1ZWyecSk++H3e7QPU80ljH4ICIiohGnp+db5BVYcOjAfnRf7kL1KSu2bd8hb+RtjU1Ivj8Fy/Ny0X25C5cungMAPLlkmQxA2tra8dzG59HwYT1Kd5fA6XTiySXLEBkZge7LXei+3IWyvaV4aN4i2Bqb4HQ6kf/0CqSlpuieX5qbD7vjRoCwc9cedHR04tLFc+i+3IXyQweRV2CRAYqlsEj3fPUpK/IKLPJzWyurkLP0KZQfOojuy104Za3Aq6+Vur810djH4IOIiIhGpPXr1sI8IwkAYJ6RhAXzs9HyeSsAoPpMDe5NNqMgPxcAYDKZsP/111Cy47fy9V98eRH/8Zv1CAsNBQCcO38BPT09KN60QW6TnpaCe5PNqD5TA7vja+x6ZTtKd5fI583mJIRMmCB7J1paWxEZGQGTyQQAyJqbia/aL8A8Iwl2hwPNzZ9iy0svyOfF5z52ogIAcOxEBXIWP4GsuZkAgLDQUKxaYcHVq9/I9yQayxh8EBER0YiU8MN49SG0tN4IPtQgAO4b+diYafKxmGlTYTbfCF4AwG53oPnTfyAhMVmmPYVPiUNd/fty+5hpU3VpUQmJybjwxZdyH5aCfBx/uwIhSpqX2P+FL75ExpwsXdpV+eEjgDvlq6OjEwnx+u9lNichZtpU3WNEYxWDDyIiIhpVxE18f7V83oqIiHC0NDfItCrxt2b1SjneY91zG+Q2Lc0NusDAPCMJX7VfQPflLmTOnoXwKXEyCBG9I9WnrB77L91dgu96e9HW3q75REQ3HwYfRERENKqYTCZkzp6Fjo5Ofc+Dw6H7typjZjpcLpfXAd42241xG6esFTJVy2534JvubmXLG9asXomW5gb09PTg3PkLMJuTMGnSRK/7DwsNRVpqiuy9EWy2Jl3vCtFYxuCDiIiIRp2Mmen4uMGGvfsPAO7ekPynV+CBtAw5OFwVFxuDKdHR2Pj8izJIESlW1soqhIWF4sqVqzIIcTqd2Pj8i3I8hugZETNnwR04dPf0ICwsVAYX657bID+DrbEJd0fFyJm6Fs7LRvnhI3IAutPp5IBzuqkw+CAiIqJRxzwjCQ0f1mNf2QE5dgMAztZWy14LlclkwjvHjyIyMgLhU+IQcudk5BVYUH3Kiqy5mTDPSML6dWuRs/Qpuc/HFi3ApEkTUX2mBmGhoThbW42Ojk45nkPMyCXes3R3CZbn5cpxJRlzslC2txRrVq8E3APUyw8dlO8R+6MkrFph4ZgPunm4vGj4/Av1oX55pWS3a8K/3C3/wiKnuRpsjepmfTppfVfu46T1XfVpGgIDPfe9vb2uh+c/qjvv/T13z6xc7XqlZLfLpdmfv68dDtrPOxBf2e2ue8z3Be07NtgaXakzZ7u+stvVp8aEgZZdGhl4/kY/nkMKBJaj4RGs4z4kPR+WwiLsKzugG9C1ft1aZMzJ8lhoxxfRFVm8aSO6L3cha26mXBxIXWiIRg5xvrR/YkrB4SK6yvtT/oiIiIgosAIefNgdDtTW1WP7y1t13Z5rVq9EzuIn5DzX/hCzQhhNtUdERERERKNLwIMPQSwCpFW6u0S3cI9ojRZ5k9r5sq2VVUhITEZn5yWZF/la6euI/VES6urfR/HmLQi5czJ27tqDnbv26F4reke0A8LUlm/1ve+OipGrk8Lde2OtrIKlsEj3nHbu75A7J+veg3zbuWuPx/FSz91g7Ny1R3duRO+YUVnSrjSrfY3RZ1H366v3ROxP/Z6CGHgoy5x7UKO3bbSfyWigI9zvOZgyqv4W1GMgfgfa46D+XsR23t7X6XRiybI81NbV45EFjyEx+X6vA0KJiIho7Ap48CFmeijevMVnapTd4cCcrGwsz8uVqTmRkRF4cskyOJ1OZM3NREtzAyIiwlF+6CC6L3dhheVpnP+sCakpD8rUnjWrVyJjZjoutrXh3PkLgHsF0+7ubjQ3f/r9bBPumzyzOUnOiJGWmiLfu2xvKZbm5utuiDZvfRkJ8fFy5VJrZZUcmNZ9uQuXLp5DR0dnnzd3NPSslVW6VL/qU1Zs274D1soqw7KUNTcTtsYm5BVY5GOiDD67/vuVb9UUQjFI0CgA0e5PG2Rrn39o3iKsX7cW3Ze7cP6zJrzxhzfhcrk8tinbW+rxu7ht/Hgsz8v1mFry2IkKLJifPaAy2tfvUCg/fAQtra1ym/Xr1up+L/6+7zMrV2PVCguaGz70OiCUiIiIxq6ABx9w93CUHzooeyfEn/aGrfzwnxAdFYWC/Fz5WPGmDWhrb0dNbb18zB9i6jwxr7bd7kB0dBSioiLlY8dOVCAtNQVhoaGwO77Grle2624QzeYkhEyYoJubOyQkRPf5jp2owPp1a2GecWO1VJPJhFUrLKitq2crroZ63oPRyt3yeSuio6Jw2/jxgGYRKF9jTXp7e3H+sybdNgvnZcube6MUwqy5mfjo77WIjY3R7EkfNHh7z+ozNbg32SzLlMlkwq+f/ZWcwlFss2B+tm4floJ8GVznLH5czicPTZrjwnnZwADKqL+/w4iIcBRv+j4oy1n8OOB+Pfx8356eb5Gelur1+BAREdHYNyTBB9w3aaKVtPtyF4o3bUTO0qdkb0hLaysiIyNgMpnka24bPx7RUVGGKVu+iMWGxHiSYycqsOwXS/CT++5D9ZkaON0roYobtJhpUxEzbaouTSQhMdljgZ/M2bPk5xP7UG+sc5Y+pXsNeQ44D1Qrt5rWE6JJEcpZ/Dja2tsRPiXO72AnLTUFJpMJlsIiw/NptzvgcrkQFqb/7LEx0xAbM03+u+urLizNzQcAj221jMp8XGwM7k0267YpP3xE9x0z5mTJACUsNBSJifeg+kwNYNCj198yavSZjH6H2sAOykJZ/Xlf8RskIiKim9OQBR8qMeC86vR7uHz5Mjo6OtVNBiXhh/Ho6OjEhS++REdHJ8zmJGTMTMcHH32EBlsjLra1yRtDkeO+7rkNMp2mpbnB5xzbYvC7emMdyJtr8k0NaLsvd+Gd40dhMpkQFhqK5oYP0X25C9tf3oqExOQ+gxARzACQ+ys/dFA+b7c7dL0S3ry+rwzL83KxYH62buEqLXGD7ovYJmfxEx7fU6T+wX0DX3X6PTidTl2PXn/LqD+fyR/9fV8iIiK6eQU8+FAHvxq59dZbkTl7lkfu+mBmtzKbk9DT04Mzf6vBhAm347bx4xEWFoqenm/Reu48pkRHI86dKiNai09ZK+SNkd3uwDfd3bp9amlbemng1HM+FMcza24mLl08h+ioKMMB3cKxExXIWfyELv1O29pvNidh0qSJulQ8ADh/4Qvdv4s3bcSa1SthKcjHxw02w7RB0Tunfv9z5y/g4wabz21UoqzX1NajuflTWArcvS79LKPe3s/od9jW3o7venvlv0W6V0J8fL/fl4iIiG5eAQ8+0tNScG+y2WPwtrWyCuWHj2DVCgtMJpNMk9m7/4DcpnjzVkRHRSE9LUU+pjKZTIiMjPC40RHpKPvLDuIn990nW8MjIyOwv+ygLoUqLCwUV65clTemTqcTG59/sc9W7oXzslF++Igcu+J0z6qlzg5ExhJ+GI+PG2xyvIK1sgqffNKsbtZvRufh3PkLut4uo1SihPh43ZgEW2MTtm3fIZ8XN9XrntugG1h930/TDCdTECvjarfXypiZjo8bbLoyX7p3P65fv+5zG0thka4XR5T1N/7wJqKiImVQjQGUUX9/h52dl1C8eav8txjrIcZ+9Pd9iYiI6OYU8ODDZDLhneNHkZaagoTEZJn/LWbCEYNNw0JDccpagX1lB+Q2HR2d+OObb+jyz41YCvJx/O0KhGimU4X7BujTf3yma7FNiI/3eEzcJIppV8OnxOGxRQswadJEmUtvJGtuJqpPWZFXYJGvi4yMkKk/5FvW3EwsmJ+NjDlZCLlzMl59rRRrVheqm/WbKHORkREInxInx0n8btt/egyAFuMSrJVVKMjPRXRUlCynS3PzseWlF3QBUunuEizPy5Xb5Cx9CuWHDmLN6pXKp7hB7HNOVrZHAGKekYSTJ97Ctu07ZJmf/fMMpKY8qNum4cN6j9/F2dpqXfrSwnnZ+MvJShloC/0to/7+DlNTHsTsn2fIbbZt34FDB/bLz9Tf9yUiIqKblLrkuRCsJdZp5OG5J62T1nddD89/1NXb26s+NeIEouy+UrLbdY/5PtdXdrv6lKHe3l7Xw/MfdZ20vqs+NSjPrFztmvAvd3v8Bfp9RpLBnr9XSnbrjtUzK1erm7hcBsdWPabinPra5qT1XY9z4+s9vVE/8yslu9VNPLbp7+/xK7vddY/5Pt13UPfp6/37Y7DncKg12BpdqTNne/199/V8oBidE0GUv/6Wpb68UrK732VnuASiHInj2J/6fLR7ZuXqQZWbQBx3fwS854OIiAJDnXxA9C6p66fQjcVAt23fIdeaaWluQG1dvcdil48seAwdHZ24dPGc7phqUwafXLIMAOQ23tb3Uc9P9+UuwzV+vFHXEWppbsC+sgO6Hn2j79XW3q5bj6gvxZu3orPzkvqw4SQR3np1KXjEuDt1PB71T01tPT5usMHlcvkc/0nBx+CDiGiUEKl7x9+u8LgRvpk5nU5UnX5PLrYJd0rh8rxc3bgucTOy5aUXZDqgSMN99bVSOJ1OOQmEGJ8I91jG1JQH5XTuUCanGAhbYxOOv12hW0coLDQU21/ein1lB2B3OOT30q6hI7bxtnaPIAItkUoZERGue14dN0kjR5h79kamrQ6OWIA3PS1V99ul4cfgg4h8ypqbedNfBHfu2iPHu4gxQ6rvenvlzV6IMh7N6XRiybI8WCurkJh8v+E2/jLPSMKC+dkeF1PtejVGMw5qb0a9bTNamdwztyXE62dKVGdOPHaiAvcmm3WTNMA90YNYyDMuNgY/z/iZbs0ek3uiE62W1laP9+uP6jM1mDRpIszmG0GFIP5tszXJ8WwD6Y0Qr+2+3IX9r7+me87pnmZbPT7DyVJYpOulElPia38jtsYm3GO+T5ZbW2MT7o6KkWVa7RG0VlbBUlgkp1U3+r2J34Wv30Nf76P+tozqCO0+7o6K6bMl3lJYJD/vQOsPbZ2gfmZBu432c+/ctcfjmIjv6W1fI4mYkXHhvGwsnJeN429XeJxfS2ERjhx9S3fu1ElS/NnGWznzVm7EcVT3I7YX50B9vbq9Wu76Kg8jCYMPIiIfdu7ao0uNUdN0hANvHMKWl16Q22zbvkO3TU/Pt8grsODQgf1et/GXOlObpbBIl0pUtrcUD81bJC+2TncqUWRkhEyvUbcZ7dasXonsRx7SPdbyeavHApnqoppwz4A4btw42O0OmEwm7P39bl3wIW/WlWDj9ttv090MqjcHfVE/G7zMzKdldziw7rkNWJ6Xq5uEor8mTLgdXV99ZXhzNBwWzsvWzz5oa4LL5cIHH30kj2n1mRo5bb6tsQkPzVuEsr2l6L7chUsXz6Gjo9PjO9TU1uGNP7yJSxfPGQZxIn3t/GdNsndJy5/3EfvQpvI9u/43uiDpoXmLsH7dWnRf7sL5z5rwxh/ehMvlkvvoS3/rD0thEWrr6mW9tXBeNo4c/bPHNt5SEHMWP+4x1byYRVJM7z6SaRfgFdPmG00oVGBZiVUrLPLcQnM++7ONWs58lRsxAY46hX31mRrcm2xGelqKx+u7L3chMjICTy5ZBqfTKet0aModgIDMIBoMDD6IiLywOxzYV3ZAlxqjpukImbNnyZsX0Tuh3kBq02e8bdNftsYm1NTW6VKJxMxypXv3A+6bhp6eHhRv+v6CKaZFN7ogj1axMdPk/4tzJ6ZZ9xZAGDG5p2oXRLpWxsx0QBOM7Ch5FaesFegewFiMltZWw0DIG9EKmpCYjO0vbzW8kfbXd729aPqkGUffOo7znzXJG8/jb1cMW+up2ZyEkAkT5M1uy+eteOShuejp+Rbf9fbC6U5BE+ezdO9+LJifLWfQNJlM2PLSC6iprdMF1FevfoNfP/srw+Msbr7V2f20+nofu8OBXz69XNc7HBcbgynR0fK7iJvKgvxcuY9fP/urPqf3V/lbf4hWf229lTU3E9OnJ+q2aW7+1CMFUfSqirRFbQ+rNvgb6bQL8IrvIhbn1cpZ/ITu3K5aYfHoJfFnG7Wc9VVu0tNSdGuRqeW7+kyN7vVwz/QqemhFIKg9fwX5uQgJCZHbj2QMPoiIvLDbHXC5XLpWcLjTedRWK39SWIy2GWzuvd3uwLhx4zw/Y3y8HLBqtzvQ/Ok/dNOfh0+JQ139+7rXjCVivRrtDZ/RGlF9ET0N2hs/kzulqbnhQ4/xGuKmRE2JEH+ipVp7fvxhnpGEr9ovoPtyF46dqJBr//T1PkaMxhSIoFqMNwm2MPf6RdVnauB0OvHBRx9hSc5iREZGwGZrwne9vejp6UHGzHSvgaS2B0swSrMDgB07d6H88BGfAaA/7xMWGooZSdNlcGj02zIKNONiY3Bvsln+2x/+1h/e6q2F87J121z44ks59b34Kz98RG6TMTMdzc2f6sYfaddMG6ls7vFU2u+rTa3UUs+t0eLC/myjLWf+lBuTO1VUBHcimBANHC2trSg/fER3bjLmZMmA1ajeF/scDRh8EBF5Ybc7+t06OdTETYBo1TNq+VS1fN6KiIhwmYKh/RtMC/pI5atF2+iG39vNmt3hwJysbCzPy/XrOIWFhWLixDsAZcyF9k/bkqkGsNDMdGR0oymIHiztuBBf7+MvX+8ZDAnx8WhpbZU3iHGxMVg470ZLvM3WhO6eHoSFhcpjNFAXvvgSf7G+i/JDB31O3uDP+4jg76F5i3DyxFvodqfYiPWbxI1oMPlTb8leGfcsato/MWNbXGwMJkyYAJutyePmeCSrPlOD69evy7XcxI37pUtdQenp9afcQAnutL1KoswYzab3VfsFmGck+VXvj2QMPoiIvDBq4YKXsQTBUlNbj7r692WrXsbMdLhcLs/PqGlt9bbNWCNuBL0FHgvnZesWERWM0klsjU1Ivj/F78ADXlojvcmYmY4rV656DDzW5qobDboeSsNZrqG5Gfu4wYbbb78dJpMJYWGh+Pbbb/HR//tYl0aTlpri0ervLYhUxUybilPWCpmeqKZQCv68j7gpP3niLdkzpr35FK3RatArZlUbCt7qLW0KlbdttLSt89VnapCelmo4LmYkEY0zRjfuxZs2eqReqefWZmvClStXdWXIn220/Ck30AR3NbX1qDr9npxhz1uZ0TKq08V3Hw0YfBARuam9CiJXeN1zG74fCNvYhG3bd+imYg0Wa2UVcpY+heJNG2XLtnlGEtLTUrHx+RflhcpaWYXjb1fIgaEiB13dpq/0nNHE1tiE2B8lITIywuvsbGKci/Y4GJ3Pnbv2IGNOFsr2lhoGHiLFRjvoWKRnibLTF5Ffry1bYh9iMLm4iVFToYo3b72xD2WmLH+ps/JAcxyGM60mLjYGUVGR+N3OXTK4FgHh//zxiC6NxlKQr+u1cDqd2Pj8i/2+QS7etAFt7e3Yu/+A+hTgx/uIVBpti7q6rkrGzHR83GDTvUfp3v24fv26/HcgiXKj1lvH3/4++PC2zd1RMbpyIQLCqtPv6Y7/SOVrULw4DzW19fKx8sNHdOf21ddKdVN2+7uNqq9yA01wd+CNQ4DyezYqM5bCIpluaVSni4ap0YDBBxHd9MTNWPiUOADA77bduLmDexal5Xm5cryEuCkdSFpLf6k5v3kFFlSfsnrcEJfuLkFkZATCp8TJ7bQtsSI1R92m+pQ1KN9jqNkdDizNzcf169c9jpl2ulCj46CeT2tlFYo3bwEAXdpGiGY2K/OMJJz/rAkdHZ3yuYTEZCzPy+3XIoOlu0t0ZUvsQ3t+1W1C7pyM2rp6nLLeGBQ8EFlzM+WChmKfvoKtYDGZTPjJfffh6tVvZOuwyWTC7bffrnsM7uDt5Im3kFdgQYj7txsZGdGv4w/NWJ3izVsMe5j6eh/t68WxjJg8WbcujNjHtu075Dazf54hU7OGQunuEqSlpshys/H5F7Hrle0e2xjVbdoyIFrn29rbBxzsBou4wVd7MQUxzkbb01W8aSOOnaiQ5xZK/e/vNqq+yo0ggozIyAjd79k8IwkNH9brfqMdHZ04W1uNsNBQmEwm/PHNNwBA1mXHTlSgeNNGzd5HrnEuL3O92Vq/hDl+qvow3QR47mm0Ytkd3Xj+Rj+eQwqEYJQjS2EREuLjfQbc/mwzlgTjuGOoej4syqI14q+/c6D7snPXHtn9RCOHUzPzSiDPt2iZVv+MWqr6y1pZ5bGY0lATvxE15UXkeLNsExER0Vg0JMEH3PMiq4N9vOXhDkRLayuuXLnqc7AUBV9NbT3a2tvR0twQ0PMNwGO2HpE2oC4q1V/HTlTg+vXrAS1LO3ft8Rl8le4uQc7iJzwGOpYf/hMADCqlgoiIiGikGrLgI9DEQCjRIly6u0ROOUYjRzBnSxG5ttpVcQeidHcJugc4NeVgqAMdxYBP7cJQREREFHilu0v6TKfyZxvqv2EJPqyVVbAUFmHnrj0yfcYozUSbviXm0BaLOlkrq3Qty5bCIhw5+pZusSW1RVybEhSiDEQU1PQe7T5sjU1YsiwPtXX1HjOd3OzEsS3evAV19e8jfEqcx/nxdtwHe1xFD5iv/fh6f2tllUf581UOBKN99nUctETwtG37DtTW1WPj8y96rGhKRERENJYMS/AB9ywuLa2tMoUmLTUF+U+vkDdpO3ftQUdHJy5dPIfuy10o21uKpbn5HgGKVoFlJVatsMiUnNq6ejkmwOl04sklyxAZGSHfs2xvKR6at0jeiForq+QMMN3uhYI6Ojp1N55tbe14buPzaPiw3mPWgpuZmEWmeNNGpKY8iEsXz8m0K4t7wS/tudQedwziuLZ83opJkybKWVCM9uPP+2v1VQ5EgKHd5/p1a/HQvEU4d/6C1+NgRMwzn73wcbS1t8vFw4iIiIjGoiELPtTpDkOUwcEREeG6Gy1LQT56enrkaq8tra26+cbFFG/qgkxaOYufkK3GYn5+scjLufMX0NPTo3tPMee7mJ/72IkKrF+3Vjc95aoVFl1azxdfXsR//GY902L8ZGtsQk1tHba89II8l+KGu3TvfrndQI6rSFPSzquv7sff99fqqxyIecS1+yzIz0XNX6u8Ljrki5g73d/1AYiIiIhGqyELPowGnGvz5ozGBXzT3S0H/SbEx+sWVtKu+upNQny8+pBcIdJud6D503/o5koPnxInF2Rxupez187VHXLnZOQsfUq3v5hpU31+BtLztuJvQny8bvVOf45rZ+cl3fnLmJOF9evW6npK1P34+/6CP+XAaJ8mkwmxMdP6HTzY3YuKrftVkW5BIiIiIqKxaMiCj8FSF/bKK7Dg0IH9/b65E1o+b/WYLUkbFH3X2+tOe9no8bwYZ0L91/L5jZ6nQDA6f30NBOvv+/tTDvq7T1+KN29FdFQUflVUiPXr1upWmyUiIiIaa0Zs8CFStMSN32BntsqYmQ6Xy+V1OtWw0FCkpabINC0KDG/HvaW1FZGREV7HQgRKf9/fn3JgtE+n09nvoMFaWYXjb1fI9K2C/FxER0WheLPvlVOJiIiIRqsRG3zkLH5ct6y8+BtoWkpcbAymREdj4/MvylQbMaOR2OfCedkoP3xE/lsMLPY2WxH1zTwjCelpqR7H/fjbFbAU5KubB9xA3r+vcmBUlvbuP4CExGT5moQfxqOtvV2OYVKJdCujsSXa9yYiIiIaS4Ys+DAacO7vTbzT6UT+0yuw/eWturSX8kMHkVdg8TpLkS9iNqbIyAiET4mTqVzVp6xykHrW3ExUn7Iir8CCEPeYkMjICJ+zFVHfSneXeBz3kyfeGlRPVn/09/37KgdGZWnb9h26spSeloLoqCgkJCZ7lHu7w4E5WTcGmecsflw+Dvd75yx+AjlLn2IAQkRERGPOOJfL5VIfBABb65cwx09VHw4KW2MTCovW4k+H/6Aba2F3OPD44l9gd8kOrzeONHjDee6Hg7WyCuue28BVxceAm63sjjU8f6MfzyEFAsvR8AjWcR+yno/BCAsLRXdPD8oP/0n3ePHmrZgwYQLiYmN0jxMNRjBXZSciImM7d+3x6CkmorFnZAYfoaE4dGA/tm3foUvbAsAUKAoYu8OBxOT7Ubx5C1atsLBcEREREQ2xERl8wD1Q+Kv2C7oxH/1Z+ZqoL2GhoWhu+BDdl7vkWA0iIgouMalH8eYtqKt/H+FT4nQ9IJbCIl1DpDoebueuPbrnLYVF8jlbYxOWLMvDkaNvyefFvrWv076GiIbWiA0+iIiIaOwTk3gUb9qI1JQHceniOZnlYCksQkdHJy5dPIfuy11yMhARgFgrq+SEH92Xu3Dp4jl0dHTK6foB4K/Vf8Ppv1bL5wHgfz08H3BP5199yspFXomCiMEHERERjTh2hwPNzZ/KtZDgzopYMD8bx05UyO2064CZTCZkzp6lW6tp4sQ75NTq4vmeb7+Vsw2KfQZyAVki8o7BBxEREY04drsDF774EhlzsnRpVeWHj8htsuZmyrQt8Xzx5i26/dwREoKwMP1MhpxkhGj4MPggIiKiEcdudwCATKkyGgO6c9cehE+JQ+bsWfK54k0blT0R0UjC4IOIiIhGHLM5CZMmTZRBiMrpdKLq9Hso3rQRa1avlI9rU66IaORh8EFERETDLuGH8Whrb8d3vb2Ae0bCtNQUrHtuA+yOGwGIrbEJd0fFYOeuPTCZTIiMjEDV6ffkzFjWyipdWhYRjTwMPoiIiGjYpaelIDoqCgmJyXI63NLdJViel4uExGSE3DkZGXOyULa3VPZ0FG/agLb2doRPiUPInZPx6mulWPerItTW1cuAhYhGlnEul8ulPoggLrFOIw/PPY1WLLujG8/f6MdzSIHAcjQ8gnXc2fNBRERERERBweCDiIiIiIiCgsEHEREREREFBYMPIiIiIiIKCgYfREREREQUFAw+iIiIiIgoKBh8EBERERFRUDD4ICIiIiKioGDwQUREREREQcHgg4iIiIiIgoLBBxERERERBQWDDyIiIiIiCgoGH0REREREFBQMPoiIiIiIKCjGuVwul/ogANhav1QfIiIiIiKiMcocP1V9KOB8Bh/B+AA08vDc02jFsju68fyNfjyHFAgsR8MjWMedaVdERERERBQUDD6IiIiIiCgoGHwQEREREVFQMPggIiIiIqKgYPBBRERERERBweCDiIiIiIiCgsEHEREREREFBYMPIiIiIiIKCgYfREREREQUFAw+iIiIiIgoKBh8EBERERFRUDD4ICIiIiKioGDwQUREREREQcHggwLOUliEkDsny7/E5PthdzjUzcYEa2WV/J7Wyir1aSIi8oPT6cQjCx7TXTvEn6WwSN18xBLfYyR8ZltjE+6OikHInZOxc9ce9WmiYcPggwJGVLodHZ24dPEcui93oftyF9JSU5B8fwpsjU3qS0Ysu8OBxOT7fQYUTqcTr75WiuJNG9F9uQtZczPVTYiIqB9Efar9K91dom42Yn3X24u29nZ0dHTC6XSqTwdV6d79WDA/G92Xu7Bm9Ur1aaJhw+CDAubc+Qu42NaGLS+9AJPJJB//3batuDfZjOozNbrtRztxkUn4Ybz6FBER3YTCQkPR3PAh3jl+VHcdDDan04mOjk4kxPP6RCMPgw8KqKtXv4Hdrk+xMplMeOf4UdnysnPXHo8u6Z279uCRBY/JliJLYRGOHH1L1w2vfd7fbeDet7YLX9ub4XQ6sWRZHmrr6vHIgseQmHw/yg8fQUJiMjo7LyFn6VMer4E73crbNtqubqOUAUthEayVVbAUFuHuqBiPHiHxmayVVUhMvl/uR+02V9MUtPuyFBbp3lf05Gj3YWtswj3m+zzen4hopBH1qlqH3R0VI+s6f64Jar2p1u+2xiYsWZaHI0ffMqxbBTW9WLsPS2GRR32t3V7dn7/vqfK2T1tjE2J/lIS6+vdRvHkLQgyuH0TDicEHBUxcbAzuTTYjZ+lTHjfrA1FgWYlVKyzovtyFSxfPAQCeXb+hX9vs3LUH+8oOoKW5Ad2Xu1B9yoq8AovH53tm5WqsWmFBc8OHyFn8BFqaGxAREY7yQwcNU6qy5mYabmNrbMJD8xahbG+p/EwdHZ0eAcjmrS8jIT4eX7VfgHlGku45AOjp+RZ5BRYcOrBffu5t23fIz+10OvHkkmWIjIyQqQlle0vx0LxFsDU2YeG8bNTW1cuxNjZbE1wuFz746CN5Ia4+U4Mp0dGIi43RvTcR0UhjnpGEkyfewt7/rwy2xiY4nU5sfP5FLJifrUvL6uuaIP5fpAZXn7Li2fW/0d3o/7X6bzjwxiG5zfp1a7E0N1/Wpzt37dGlF5cfOoi8AovXYMFSWKTbXltXC329p8rXPs0zknD+syakpjwo09iYdkUjCYMPChjRw1G8aaPsDVBbZPojZ/ET8qbfZDJh1QoLjr9doduXr23sDgf2lR3A9pe3Iiw0FHBfwNavW4tXXyuVN+E9Pd8iPS3VI8AYCJFjq/1MW156ATW1dbrPHRISgoL8XM0rPa1ft1YGJuYZSVgwPxstn7cC7hS3np4eFG/6/qKanpYi09vM5iSETJgge6FaPm/FIw/NRU/Pt/iutxdOpxNVp99D5uxZw5oaQESkJVrqjXoVzDOSUPB/8rDx+RfxSslutLW36+pA+HFN+OXTy3UpUXGxMZgSHa3rsZ848Q5d+nDO4sf19WlrKyIjI+TzWXMzvTYk2RqbUFNbp9tf1tzMG0HT3v1yu77eU8vffRKNVAw+KODWrF4pW+O7L3dhwfxsZMzJ8uht6Iuaq2o2J2HSpIm6ytjXNna7Ay6XC2FhNwIPIeGH8Whrb8d3vb3ysYXzsnXbDIS3HNuwsFCMGzdO97n9uek3GkvS0noj+LDbHWj+9B9ISEyWF+jwKXGoq38fcOcdJybeg+ozNXA6nfjgo4+wJGcxIiMjYLM14bveXvT09CBjZrryDkREw8dowLm2YUg02mx/pUTXsCSo9a/2mhAWGooZSdNh06TGautN4Y6QEI/rRndPj6zDLQX5OP52BUIM0rpUdrsD48aN89hfQny8blB6X++p5e8+iUYqBh805H63bStSUx7EsRMV6lNDym534OrVb9SHh4wYgB4MLZ+3IiIiXKaTaf9E93pCfDxaWltx7vwFwN3Ct3BeNo6dqIDN1oTunh6PixcR0Ug2mHpWjPd4aN4inDzxFrrdqVmpKQ+qm/pknpGEr9ovoPtyFzJnz0L4lDivQYjorQ6kodgnUTAx+KCA2blrj99reqitM6JFX0t9zGZrwpUrV3U3zL62Meopgbvijo6Kwm3jx+seH6yw0FCkpaZ4fCZvPTCDkTEzHS6Xy+O7aWXMTEdz86f4uMGG22+/HSaTCWFhofj222/x0f/7GGmpKR6thkREI1nx5q1IS03xOs5CrX+11wQxI+PJE2/JFKnBBDNw9/S3NDegp6dHNvRoeaur1dSt/hiKfRIFE4MPCpicxY8DAPKfXqELLPbuP4CPG2ywFOQD7nSijxtssqK2Vlbhk0+a5fZC+eEjugHWr75WigXzs3V5tb62CQsNxfK8XKx7bsP3A68bm7Bt+w6sWmHxWUHfNn48oqOi+t3CJLrjtZ9p4/MvIj0t1TAfeKBEnvLG51+Ux9rqXvBQvHdcbAyioiLxu527ZFqZGFz+P388EpBUMyKiYLFWVqG2rh7FmzbIMQ7aOhB9XRPcKbDaad+LN29FZ+cl+e++iJkDtZOI+OpJNs9IQnpaqkddffztCnlN7K+h2CdRMDH4oIAJCw3F2dpqAED4lDg5FmFf2QE0fFgvb77FRSNjThZC7pyMV18rxZrVhcrebuT+HjtxI682fEoc4E7h6s82a1avxPK8XDk2ImNOFsr2lvY5uFwMVBSDH/0dr2J2z8iSV2CRnykyMiLgi2SZ3IP7IyMj5LHOK7Cg+pRVN9jyJ/fdh6tXv5EXRZPJhNtvv133GBHRSGE04FxMXZuz9CndOI/iTRvQ1t6OJ5cskzfhvq4JYaGh2P7yVt17REye3K+0YHGd6+jolPsQMxN660ku3V3iUVdre18GYij2SRQs41wul0t9EABsrV/CHD9VfZhuAiPh3FsKi5AQH+9zekB/tqGby0gouzRwPH+j33CeQ14Txo7hLEc3s2Ad9yHp+RAL33hb1EYs+qaufdBftsYmpGXM8WuMQX/0Z+wCERGNDOqCot6uMb4WiIMfC9FBk+ao/nl7T2/Uz2x03VS38Ta4mYhoNBiS4EOoOv2eRwXpdK8vcM+Pf6R7fLjsVFbWhnvQ1pUrVz0GcxER0ci0c9cebNu+A9WnrOi+3IWW5gbU1tXrggERVGgXZ1MXHnW6F/CEZiG68kMHDRdPzVn8hMdsc/1JsbQUFukWQW1pbsC+sgO6AMToe7W1t3ssuEpENFoMWfCRmvKg4ewPYraJ6Ogo3eMjSenuEq8LBvmrr94f8q10d0mfXef+bENEY59o1NJOSCEmnKitq5e92DW19fi4waZbnM2sLDx67vwFfNxg001KkZ6W4jEuoL+TUahsjU04/naFbgyDGJOwr+wA7A6H/F7aBUfFNtrvRTfwmkA0OgxZ8BEZGSEXOdOqPlODKdHR+HFCgu7xvrq5bY1NWLIsD7V19bg7Ksawa1vsQ7uitnYxIW13tdi2ePMW1NW/r5un21pZpesNsRQW4cjRt3SfT31/9X0A6NZcICKioWEymZA5e5bHAnPqQp3HTlTg3mSznPVNyJiZjottbTh3/gLiYmPw84yf6SZkMJlMiIyM0L2mpbXV4/36o/pMDSZNmgizWd/IJf5tszXJiSV4HSGisWTIgg+4V43Wpl6JVpzM2bMwXlljQXQha7vCn13/G90c3m1t7Xhu4/No+LDesGtb7OP8Z00wz0iCrbEJD81bhLK9pbJLPDIyQnapv3P8KIo3bURqyoO4dPEc3jl+1Ov0qwWWlVi1wqLrzhe9GnaHA0tz8+X7XLp4Dh0dnez1ICIKkjWrVyL7kYd0jxmt6WO0DoKYgtVud8BkMmHv73frgg+n04mOjk6PYOP2229DYvL9Ho1b/lI/G/yY5tvucGDdcxuwPC/X6+xKREQj2ZAGH2Zzki71SqRcZcxM121ndzjwy6eX627+xToG2nEXX3x5Ef/xm/WGFa6lsAgdHZ3445tvyH1Un6nBgvnZumlVLQX5soWrP3IWPyH3I7rzxWJGdrsDIRMmyBYr0QpnNOaFiIiGRmzMNPn/docD+8oOIHP2LJhMJq8BhBGTyaS7zoh0LXHtEvvaUfIqTlkrBjQWo78Lwone9YTEZGx/eSt7Q4ho1BrS4CMsNFSXelV9psZwsbWw0FDMSJquS10KnxKHuvr3ddvFTJvq0UUNADt27kL54SMeFXlLayvKDx/RpXJlzMnC1avf6F7vD6MLllilOywsFN09PSg//CdA6eHx98JCRESBU7x5K6KjolCQnwtoUqfUFbD7InoatOMuRDpUc8OHHuM1jr9dAVtjk2EqsTadOCE+Xl5D/GGekYSv2i+g+3IXjp2okDMy9vU+REQjzZAGH9CkXtkdDlSdfs9wVWVReT40bxFOnnhLpi6lpjyoburhwhdf4i/Wd1F+6KDHytIdHZ2Gs5EMdjC5Kiw0FKesFdhXdkAGTpGREWyZIiIaBkY94YLRDb/d7oDL5fJYeNPucGBOVjaW5+X6VZ+HhYVi4sQ7AE2Aol5/tD3xbe3t+K63V7MH4LveXrS1t3uMV9Eq3nSjd0U7LsTX+xARjSRDHnyI1Ku/nKxET0+PYc+FSMfSrs4pKuC+xEybilPWCrlqtpixRKQ+GV1oAs3ucCD/6RWy+727n9MtEhHR4ImGLG+Bx8J52fi4weaRdismQtEORLc1NiH5/hS/Aw+4g5hx48Z5BDFGMmam48qVq7DZvh/XCHdAAfe10+5wIDH5fo4fJKIxZciDD5F6tb/sIBIT7zEcryEG+2lnxirevBWdnZd02/WleNMGtLW3Y+/+A4C7cv+4wSb/DXeLmHYBwYQfxhu2PvVHWGjojZlWEpN13d79HXxIREQDY2tsQuyPkhAZGeF18pD0tBTcm2zGxudflHWzrbEJ27bv0E2tu3PXHmTMyULZ3lLDwEOkCGtnPRTpWWmpKYbXOZV5RhIWzM/Guuc2yOuROpg8LDQUaakpcupdoXjz1hv7MGjMIyIa6YY8+IC7tenTf3xmmHIFTa5s8eYt8sY9YvJkj3nV+6Ldz85de2CekYSGD+tlOlTInZPR0dGJs7XV8uKQnpaC6KgoJCQmDzhYsFZWoer0e3KmLpE2Bs0MXERENDTEjIPXr1/3GOennXpdpChFRkYgfEocQtzjAMv2lso0JWtlFYo3bwEA5Cx9yrBByTwjCec/a0JHR6d8LiExGcvzcvvV6126uwTL83Jlw5XYhzbgUbcJuXMyauvqccpa4VeQQ0Q04ri8aPj8C/Uh8uKZlatdr5TsVh92vVKy2/XMytXqwyPeaDr3z6xcHfRj3GBrdKXOnO36ym5XnxpW3srhzWSwZbfB1ugKi5zmmvAvd8u/YBzT3t5e18PzH3WdtL6rPuXTKyW7dZ81LHKaq8HWqG7WL1/Z7a57zPf1+b2HorwN9vzR8BsN53Ao6nDxGw729WisGkw5emblal29GKi60R8NtkbXj2f8q3yvk9Z3g/begTCY494fQen5GOsS4uM9usVFV7633h4amUTOOHOsbz7WyirZCi56MKtPWbFt+w6PRUVHAkthEfaVHUBLc4P8vOvXrUXGnKxBzXRktztw5cpVOSsUfxNEeka/CTFONRjjTKlv6mRDZXtLB103DkTL5624fv26btkIClLa1Vi3ZvVKpKWm6LrFxcxdnHGEaHQ4dqJCt54P3Hn5ZXtLUVtXr2tcGG52hwO1dfXY/vJWXerNmtUrkbP4iX6lq6rElK79SR8iutmFhYaiueFDr+ON/GUpLELInZMZ7AdY1tzMQdeNA7Fm9cpBzz63c9cehNw5eUQ2gg0Ug48AKd1doouyAz2d72jgdDqxZFkerJVVulV/tT8YsU1tXT0eWfCYbvC/+IGJP7WFQrQ2iefVytnucCAtY47M7xaPJSbfr9uXeEzsR+RxiwGrdfXvy/FH6nsYUT+X+tmtlVUe44nEMRLf3VpZBUthke4YaJ8X+jpG0Fy8QsZYZRUMRq2WWXMzdes5qOVHO6YAmnNprazSlSH13Bmdm+96e32WcZXRKtilu0tk4GBrbMKSZXk4cvQtuU9RFrWfR/2NPrLgMVgrq/z6TbC8USAYXT/Eb0u7BphaLw7096glyrz2tWJ7tWz7+k2IOlzsU/0+Ru+v/W4hd04GAHRf7jKc6IAGT1vHezvH8FJ3qmVL3Udi8v0ePRy2xiakZczp17VeLdNiTPFYahBi8EEB1dPzLfIKLDh0YD+63av+1tbVe1S4z6xcjVUrLPKmbueuPboUkupTVuQVWOTNtdPpxJNLlgGAHNgPAJ980qzbb19smukztRMDPLlkGeJiY3D+syakpjyI4k0b/b4AiEkFxOeqPmXFs+t/41FJ9aX88BG0tLbKADYtNQX5T6+QFaVFSbMpP3QQOUuf0gUgR47+GQvnZfs89mRs4bxs1NW/jyeXLPMIQASn04n8p1cgLTVFnqeyvaVYmpuvu3jU1NbhjT+8iUsXz2HN6pWwVlZh2/YdqD5lleWuo6PT49wceOMQtrz0gixH27bvMAwwxSxIYnINX/5a/Tec/mu1rrz/r4fnA+6bnOpTVt0aSVpiYLW33wTLGwVST8+3WPfcBjlt/fp1a/GLp/4P/ut3r+D8Z024dPEcoqOi5GxfA/09qkQdfv6zJphnJMFaWYW8AovH79VSWNTnb0JLvR6qv2m7e6IEkerprV6gwXO6134Ti1H7OsfCX6v/hgNvHJLX9vXr1urKlrWyCjlLn0L5oYPovtyFU9YKvPpaqeZdjfm61osyLe5Rui93ITIyYsxNXsTggwJOuxJwWGgolufl6sbE9PR8i/S0VNkNaXc4sK/sgC6FxDwjCevXrZXrtoi1YLa89ILs0i7Iz0VISIh8X39Un6nBvclm3arH+19/DSU7fqtu6he7w4FfPr1c19UeFxuDKdHRHi0gfYmICJeLhwGApSAfPT09+K63F3aDNJusuZn46O+1iNWsTTB9eqI8ruLY93dF55tV1txMtDQ3oK29Xc6EpLaG2R1fY9cr23UtUGZzEkImTNCd76tXv8Gvn/2VLv1C2xsq1iFSz03m7FlyGzEVq1HvBtw9HOWHDupmCQwx6A2bOPEOWAryAc379nz7LXIWPw748T6+sLxRoIlphuGeLv/q1W+w7BdLYDKZYDKZsGqFRbZeD+b3KFgMFqQ8dqLCY0X7VSssA0q/1O5H/a3Z7Q6ETJggp0wWv8+q0+95bQChgdm7/wDq6t+X43D9OccTJ96hu+fIWfy4rmypqbphoaFYtcKCq1e/cb+rMV/X+u96e9HT04OMmeny+YXzsgdU9kYyBh8UcOrKvBkz0+FyuXQXA+1AfG+rC2vXYDFavEtU1P3R0toqWz6EsNBQxMZMM7ww9SUsNBQzkqbrus7Dp8Shrv59ddM+RUdF4bbx43WPfdPdDbvd4fUYxcZMQ2zMNPnvhHjvqyJT30TetmhxEr0CIlUpZtpUxEybqutqT0hMxoUvvtTt595ks27Buqy5mTK1Q7xOTOeqpf52+pI1N1N+1u7LXSjetBE5S5/StZzeERLiUW6MytpAsLxRoKm/gYkT7/Aov8JAf4/Cjp27UH74iO6aIFrI1aA+Z+lT6sv9on4fuK9DcK9x1t3Tg/LDfwLc7111+j1kzp41oOsRfU+dclv0PIu62J9zbFR3dvf0wG53yH2odaDZnISYaVN1j6mM6l9xrb9t/HhMmDABpXv3y+eOnajwe/2g0YLBBw07u93RZ0vBQFplVaKyCCRxQykmGBDdt6kpD6qbDoo/x4gCTww4F6tii1zcdc9tkOlvLc0NfV5sdu7ag/ApccicPUsXKASaGHDOllO6GQz09wgAF774En+xvovyQwd1aYdi1iqRUqX90479CoSw0FCcslbItcjCp8QhMjLCaxoX+U+d7Urb8xyIcyz2EWgmkwl/fPMN3RpCHR2d+N22G6mGYwWDDwo4NVCoPlPj0WuhZTYnYdKkiR5pSi2ft8oWAqPeE9FKpCVaJQS7e9pQaHpK1EHFdseNVoyBEOlgJ0+85VGxaYkeHEE9Rn3xdozOX/hC928aGHET01eutc12YxyPdoE3u92Bb7q7lS2/J8pp8aaNupuKwaQnWSurDAc/Et1MBvJ7FGKmTcUpawWy5mZiwfxsmeIb5h5PNZjfp7/sDgfyn14hx7h0X+4aU4OKR6pAnGNv+7DZmjx63vrD6XSi4JeFcuxf9+WuQc+gNhIx+KCA27Z9h7wpEuM5tHm8KpErvu65DTKn0eZeJ2XVCgtMJpMcR7Hx+RdloFBTW69Lb7pt/HhER0XJqfScTif+63evYOLEO+Q2GTPT8XGDDXv3H5Db5D+9Ag+kZcDucMBkMiEyMsKjQvEmLCwU48aNQ/WZGvlY8eat6Oy8pNvmypWr8kJpa2zCkaN/RsiECXKbvoiKTnuMrJVVuO+naX3eMFPfRBks3rxFN2bC7nBg3XMbsGB+NswzkjzOpdPpxMbnX/TZKyXKlLY3wlpZhfLDR9RN/ZaeloJ7k80eA2vFfsXvJhD6+5sgCpaB/B6NFG/agLb2dnldWDgvG+WHj8i6QPRwi/TLQP0mwkJDkTl7lm6a/hDNjHQ0dPo6x/4w2oc/A859MZlMWPaLJciYk6UrE+qMWKMdgw8KuF2vbMfG519EiDv/Ni01pc9u5DWrV2J5Xq6shMVib2Igl+iKBCAHAx87UaFLXTGZTNjy0gs4/naF7MJetGA+pkRHy23MM5LQ8GG9rpsbAM7WVsvgyFKQL/fR1419WGgotr+8VZc7GjF5MlJTHpRBkBg8n7P0KYTcORlLc/OxacNz6q76VLq7RHeMxCwbfR1b8s+a1SvlDGLiXCYkJmN5Xq5sjVTPZfiUODy2aAEmTZqoC0BV4uZGlN1XXyvFul8VDXgQoclkwjvHj3qsLyRmbxnMnPJG+vObIAqWgf4eVdp6fOeuPciamylnXBT7jYyM0LVAB+I3Ya2sktOoilZuMSPdWJvdaKTx5xz3JWtupu6aEfujJKxaYfEr7c8bW2MT/u9/btMtHtttMPvlqKcueS4Mdon1V0p2D8vS9lq9vb2uh+c/6npm5Wr1Ka+eWbna9UrJbpfL5XJ9Zbe77jHfJ/99sxjouRfH+6T1XfUpoqAYaNmlkWGw50+97nir+59ZuVq3HeuswBnsObyZaO83tF4p2e217N4sbtZy5O3cn7S+63p4/qOu3t5e9amACtZxH5KeD3U9gm73/MjBXtpe5N6rOf7+EuMF/O1aFXnjwfyORER0Y1C/di0Vse6I0QKKHR2dunV5tGsKEQVLQny8bhp6aFKOtTNC0s0j4YfxOP52hW48n0j/HUuzoAU8+LAbrEcAzSwswVzaPsw9bWZ/utG0zDOS8FX7BQ4AIyIawZzuQf1ibA4043i0qW01tfX4uMGmm7tfpO6IAcdEwbJm9UqP1Ekxc2KgUydpdMiamykb67Xpv9tf3jqmUqwDHnwIRrP5lO4ukTfyRkvXhxgskKVdPyHEy0CsnZpl6tV9iGXsBe184N72J4hWMu3+1PcS+7ZWViEhMRmdnZdk/p/6XcY6kYfOSpOIgsnknslOnXNfXWPh2IkKwzUfMmam42JbG86dv6B7nGiole4u0eX2a6eEpZvTmtUrdWWi+3LXmLuvCnjwIWblEQO3fFGXri8/dBB5BRbZ3WRrbMJD8xahbG+pPAGRkRF4cskyGTCoKV5i8I/Rjb+tsQl5BRaUHzqo25+/A7uslVW696o+ZcW27TtgraySqyNHRITL/Y+1wkJENFKtWb0S2Y88pHtMO123oC4yCs2sdepU1kREFHgBDz7gjuTLDx30WD1SDQjUpevF9JFiZcfqMzVYMD9bdxNvKciXLVRGKV5ZczPx0d9rEWuwmmlvby/Of9ak29/Cedl+jwlRL2QiLYtBBhHR8IuNmSb/X0zzLfKknV5WJCYiouAakuAD7iBA22VUvGkjcpY+pesNUZeuF13nIhhoaW1F+eEjugAmY06WnMPbbnfA5XJ5LF4XGzNNdxES0lJTYDKZYCkskvvLWfqUuplXOYsfl9NljrU5l4mIxpLizVsRHRWFgvxcgOuVEBGNGEMWfKjEgHPtQlu+XLt2DR0dnchZ/IRH7pvIibTbHf1aTEiM9wAg91V+6KC6mVdiAHv35S5sf3krEhKTGYQQEY0wlsIidHR04o9vvuGRYmXU0+2tIYuIiAIv4MGHtbIKd0fF6KYJ8+ab7m5djq2YsSQyMgJ33nmnrhfEiNmchEmTJnrk6Z6/8IXu38KxExXIWfyEbvYqo4Hx/siam4lLF88hOipKrq5KRETDRzuVrlHgsXBeNj5usHkMLK8+U4Mp0dEeA9GJiCjwAh58iHEbS3PzdT0C1soqlB8+glUrLPKCcPXqN9j4/IsyuBDTIFoK8gH3DCQfN9iwd/8BuR9LYZHsbRCD29c9t0G+l7WyCvf9NM1wsHtCfLxu2kUxn7Y/xEVNOzvWufMXcLGtTbaW3TZ+PKKjogYc0BAR0cDYGpsQ+6Mkn6sUi+uT9rojrgPaaxMREQ2dgAcfYrpVde7qvAILqk9ZdYOzY6ZNxaoVFsT+KEmOvyjbWyqnmTPPSELDh/XYV3ZA7qejoxNna6vlAPPS3SVYnpcr3ytn6VMoP3TQcD7kgvxcREdFyW2X5uZjy0svGLaEqcT3ioyMQPiUODn+5Hfb/lN+XpPJhFUrLHKgvTrAnoiIAs/ucGBpbj6uX7/uMU5Q2xPvrR4v21vKiUOIiIJknMvlcqkPAoCt9UuY46eqDweMrbEJhUVr8afDf9AtRkjDb6jP/UhkdzgwJysby/NyDQNXGh1uxrI7lvD8jX4DPYcDqYN37tqDfWUHcMpa4fU+wlpZhbwCC06eeGtQ62f4814UOAMtRzQ4wTruAe/5IBqN7HYHrly5yplwiIiGwUDq4JbWVly5clWO+7RWVnlMAtPyeSuuX7/uMTbUl5279ngsQKy+FxENHIMPIs2aLdrJCLTsDgcSk+/3ezIFIiLyX191sJHS3SV9rgguVosebFqdP+9FRP4ZtuDDPCMJtdWn2H05BmnXUVFv1sVNvLfnrZVVsBQWYeeuPXIbS2GRx361EwoYvUbdL9ytWdpccLFfaCYU0I7T0W6fkJiM7S9vlRcfW2MTlizLw5Gjb/l8TyIi6ptaB/tTx1orq2QPhaWwCDlLn0Jn5yXdNPi2xiakZczR9YZ4uxaIz1C8eQvq6t9H+JQ4uX/xXpcvX/aYfAbuz3t3VIzu898dFSPfw9v23p4nGsuGLfigsUc7zeWli+fQfbkL69etxUPzFsHW2ASn04n8p1cgLTVFrrNStrfUY2a08sNHAPdaLC3NDaitq0fqzNlYOC9brs2ybfsO3UWo/PARtLS2yv2uX7dWt19rZRW2bd+B6lNWdF/uwqWL59DR0Wk4Kxrc2+8rO4CW5gZ0X+5C9Skrnl3/G917/rX6bzjwxiHdd1W/CxERDUx/6tjS3SUoP3QQERHhaGluQHPDh4aNm76uBWJCguJNG5Ga8iAuXTznMXParbfeilUrLGhrb8d3vb3y8eozNbg32Yz0tBTYGpvw0LxFKNtbKq9JkZEReHLJMjidTjlBgnj+0sVzAIBn12+Q+yMayxh8UMCIqYe3vPSCrKwL8nNR89cqhIWFwu74Grte2a7rVjebkxAyYYIujzYiIhw5ix8H3As7pqWmICQkBOlpKYBmukz1NcWbvq+4xevLD/9JPqbtMjeZTMicPctrfnHL561IS02RF6+42BhMiY5G9Zkauc3EiXfovmvO4sc9vgsREQ3MUNWx/bkWGElPS9Gt8eV0r1GWOXsWTCYTqs/UYMH8bF2ql6UgHxfb2nDu/AWPRS1F0NOflDOi0YzBBwWM3e7AuHHjdKsEm0wmxMZMQ1hoKGKmTUXMtKmwuleaF+lMF774Uref6Kgo3DZ+vO6xyMgIn3Pwq68RQYu4oGTNzZQ9M+K9izdv0exBL+GH8Tj+doXs6RCBVcbMdLnNHSEhHisid/f0DPrCSEREQ1PH9vdaYEQELMdOVAAG14eW1laPKZ8z5mTh6tVvAHfaeXpaKjLmZCGE0/LTTYjBBwVMX4srivEe657bINOZWpobEDNt6Kd127lrD8KnxCFz9izZDV68aaO6mZQ1NxNle0vlxUFd04WIiEaf/l4LvMmYmY7m5k9hdzhQfaYGU6KjERcbA6fTiY6OTuQsfkLuX/xpe1xKd5fIa+C65zYwCKGbCoMPCpiMmelwuVy6VimR3wpAdlFr50m32x34prtbbj9Qav6t3eFAbV09EuLjZZd48aaNuvnjfXWzWyurcOxEhe7CMdjZUoiIaPgM5FrgTVxsDCZMmICa2npUnX4Pq1ZYYDKZZK9IR0enXwPIw0JD0dzwIYo3bZQ9KURjHYMPChgxLmLj8y/KSnfv/gNISEyGtfLGuI8rV67q8mQ3Pv+i7IoejM7OSyjevFX+W4z1yFn8OEwmEyIjI1B1+j35uayVVXJgu5H0tBR0dHTqus1DlFm2iIho5AgLC/VoANPy91qQ8MN4jwYtlQgyDrxxCHCPXxQyZqbj4wYb9u4/IB+zFBbJGbh27tqjm7lLBEUJ8fFye6KxjMEHBYwYNBcZGYHwKXEIuXOynFUka24mzDOSsH7dWuQsfQohd05G+JQ4PLZoASZNmqgbyD0QqSkPYvbPM2SQsG37Dhw6sF/2sBRv2oC29nb5uV59rRTrflWE2rp6w5lTnl2/Qdct3+2e8Wrb9h3sGiciGoG0YynUxQYFf64FYkB5QmKyzylwRZARGRmhm1nLPCMJDR/WY1/ZAXlN6ujoxNnaaoSFhmLN6pW6tN7wKXGIjIzwe2V3otFunMvlcqkPIohLrNPIM9rOvbWyCq++Voo/vvmGz0Hp/rI7HHh88S+wu2SHboyH0+nEk0uWYdUKC1OwRqjRVnZJj+dv9OM5pEBgORoewTru7PkgUtw2fjwmTJiA0r37dY/v3X8Abe3tuu51IiIiIvIfgw8ihclkwv7XX0NtXb1uvEfV6fdktzkRERER9R+DDxr1suZmeqxCO1hiBhLtmI9AvwcRERHRzYbBBxERERERBQWDDyIiIiIiCgoGH0REREREFBQMPoiIiIiIKCgYfBARERERUVAw+CAiIiIioqBg8EFEREREREHB4IOIiIiIiIKCwQcREREREQUFgw8iIiIiIgoKBh9ERERERBQUDD6IiIiIiCgoxrlcLpf6IADYWr9UHyIiIiIiojHKHD9VfSjgfAYfwfgANPLw3NNoxbI7uvH8jX48hxQILEfDI1jHnWlXREREREQUFAw+iIiIiIgoKBh8EBERERFRUDD4ICIiIiKioGDwQUREREREQcHgg4iIiIiIgoLBBxERERERBQWDDyIiIiIiCgoGH0REREREFBQMPoiIiIiIKCgYfBARERERUVAw+CAiIiIioqBg8EFEREREREExJMGHpbAIlsIi9WHA4DlLYRFC7pzs8bdz1x7d62h0sTscSEy+H48seAxOp1N9esCcTiceWfCY1/I11Px9f1tjE9Iy5sDucKhPjTjWyqqAn6fRyFpZ5VEPhdw5GXdHxcDW2KRu7hfxOxD12WgqF6PRzl17dOfO2+9Uve5YK6t0z4vfua9tvJUXb+/pjfqZja596jZj8fcqjrnR91efU39XfeHvjmhkGZLgo79yFj+B7std8q/6lBXbtu/wu2Khkaf88J/gcrlwsa0N585fUJ8esO96e9HW3o6Ojk6/Lr7qRWuwjN7fWlmFxOT7eWEbAyIiwtHS3KCrj75qvwDzjCR1U7/Y7Q5cuXIVLa2t6lMUYDt37cG27TtQfcqK7stdaGluQG1dvS4YEPVBR0cnLl08J683eQUWGVw4nU48uWQZAMhtyg8dRM7SpzwCEPXa1X25C6W7S3Tb+GIpLMK+sgOyzLU0N2Bf2QFdfWX0vdra2/Hs+g26fd1MgvG72rlrz5gM8ohGghERfKjMM5KwYH42qk6/xx/+KOR0OlF1+j3825NPYEp0NKrP1KibDFhYaCiaGz7EO8ePwmQyqU8PueF+fxpdzDOS8FX7hX7dkFL/iTpnwfxsGSiGhYZieV4uauvqZcNATW09Pm6wYctLL8jfr3lGEtavW4tXXyuF0+nEufMX8HGDDatWWOQ26WkpSE15EMdOVMj3bPl8cDe+tsYmHH+7Attf3oqw0FDA/Zm3v7wV+8oOwO5wyO+1ft1a3ffa/vJW3fe62fT1uxI9I4PptSSioTMigw8a3c6dv4CLbW3IfuQhZM6eJS+kWrbGJtwdFeM1jUBNM9C2BFoKi3T/9rYvW2MTYn+UhLr691G8eYvHfsRr7zHfp7tA7dy1x6MnQ5suqH1/S2ERcpY+hc7OS0hITPZ4nc32/Wfr60IoWmXF91C3txQW4cjRt3TbWCur5IXW6DXWyir5eb3t14h6/EWLr3gvNbVEnAOxnZqS4m178bx6/kciW2MTlizLw5Gjb3l8bu3xMmppV1vM4T7GRufCUlg0Ko7HSGIymZA5exYS4uN1jyf8UP/vYycqcG+yGXGxMbrHM2amy17auNgY/DzjZwgLuxEQwL3/yMgI3WtaWls93q8/qs/UYNKkiTCb9b1q4t82WxNMJhPeOX4Ua1av1G1zszP6XWl/gwmJydj+8laPXkt/6mOx7+LNW1BX/z7Cp8TpfudqXab2kFgKi2S9K97DqB5WrxViX9p6s69611pZpfsevupdUX/V1tXj7qgYj30RBdOIDD5s7hahzNmz2Lo8ClWfqcGU6GjExcYgY2Y6rly5Cpvt+0re7nBgaW4+yvaWovtyFy5dPAcAMo3AWlmlS0UQaXhGN3C+9mWekYTznzUhNeVBFG/aiO7LXR4X8bjYGF3vjNPpxAcffQSXyyU/s93hQG1dPRbOy9a9FgBKd5eg/NBBma7T3PChbMX8prsbx05U4PxnTei+3IX169ZiaW6+xwUHmlSPyMgImb5RtrcUD81bpLtArv7VOmx56QWZCpJXYEH+0ytwylqB7stdWDA/Gxuff1F341p++AhaWlvlfn19DrgvgOrxF2kp3lpdq8/U4N5kM9LTUmCtrEJegUWmiVy6eA4dHZ3yYmdrbMJD8xbJc9Z9uQuRkRF4csmyEX/D/dfqv+H0X6t1Ze1/PTwfAOSxOv52hWFZVRXk5+LeZLOuZ1CUNW2rO/lnzeqVyH7kId1jLZ+3IjoqCreNHy8fi4yM8Di2YWGhGDduHOx2B0wmE/b+frcu+HA6nejo6PQINm6//TYZ+GuDUX+pnw0Abhs/HtFRUV57VuwOB9Y9twHL83JlXXOzM7pmPLv+N7q609/6WAR8xZs2IjXlQVy6eK7fPd2bt76MhPh4XfCj1sNpqSnIf3qFLC991bvL83I90o2PnaiQvX191bsA0NbWjuc2Po+GD+u99hoRBcOQBR/lh4/oInDxV374iLqpx7YZc7JQtrfU40aRRj6nO01ABI4ihU6brmC3O+ByueTFXVT2ojJUbxhEF3vW3Ey5D6GvffVFtJiK3OHvenvR0/MtHnlorrz4iyBEbaH0h6UgX160chY/jpAJE2C3e970nzt/AT09PSje9H0ed3paisfNqTatxGxOwqRJE5E5e5a8CbEU5KOnpwff9fbK10REhOv2m7P4ccA9Lkdldziwr+yALhVETUvRtsxCc87FDfOxExW6NBGTyYRVKywyYKk+U4MF87N159NSkB/w8UEDIXqwtPWR9oZy4sQ7YCnIBzRlp+fbb+UxFeXd242jlni9Nr3UZmtCdFQU0tNS1M3JD7Ex0+T/i7Is6iJvAYQRk8mku7EX6VoZM9MBTTCyo+RVGfj3dyxGS2urYSDkjegtFK36Y/X6KHqptX/hU+JQV/++uqnU8nkr0lJT5DlTG5UEf+vjwQoJCUFBfq7uMbUe1tbV/tS7OYsfR09Pj6wj1UaxvupdAPjiy4v4j9+sZ9BKw27Igg+jgXjdl7uQs/gJdVPdtjmLn0BqyoO8+I5S6kUaABbOy9ZVgOYZSUhPS0XGnCyEGMwik7P4cbS1tyN8Spxh17RWX/vyR8bMdDQ3fwq7wwGbrQmRkRFYkrMYH3z0EZxOp8eFzV93hIToWk99sdsdaP70H7obX6MLrtGNk5paolJbV8NCQ5GWmmI4WFMN5oSEH8ajrb0d3/X2yteLgFIETmZzkrwpU28gcpY+JffV0tpq2OBw9eo3mnccHkYDzrWtnkbnVD2+/aFN94H7BoI9voFRvHkroqOi5E2gyZ06ZVTufRE9DeqN3TvHj+p6OkWv4PG3K2BrbILTYMYsbR2VEB/v0ZLti2iE6b7chWMnKmTd2Nf7jDail1r7d+niOaSmPKhuKiX8MF4ed2hSf7XXIaPf7lAx+g0b1RPfdHfDbnf4Xe8mJt4jAypto5g/9S4AxEybOqBGNKJAG7LgY6AsBfn4uMGGmtp69SkaBY6dqMD169dlMCAqwM7OS7rUq9LdJbK1cN1zG3QXyzD3oO7uy13Y/vJWw7EUWr725Q9R4dvtDhw7UYGF87JlTniDrRFVp98zvOkPpJbPWw1vfLsNUsWGkt3u8CsIsBTky4Ct+kwNEhPvQVhoqJwNzOgGornhQ9w2fjw6OjoNGyfU/OybgQieq8/UwO5woLn5U90NEw2MpbAIHR2d+OObb3jcBBrd8Hu7+bM7HJiTlY3lebl+/Q7DwkIxceIdgCZAUcu5tsdP3Fhqid+Qr0YF0YKuHRfi633Guqy5mSjbWyqvOxlzsvC7bf85auoTf+vdhfO+n4jn2IkK2SjWV73b34YzoqE24oIPkbYguhpp9BDdwEYVYM7iJ3SpV4IINIo3bTR8PmtuJi5dPIfoqChd8GKkr315I1qUKt45iW+//RZhYaEwmUy4/fbb0XruPHp6eob8hjBjZjpcLteQpACoNzjiPBkFVCKVS/0caipcXGwMJkyYgH37D6Dq9Huy699Xrwo0qUZGN4A3q4XzsrGv7AD+crISEyZM8BgMTf4TvQDeAo+F87LxcYPNI71PO05NsDU2Ifn+FL8DD7hvIseNG+cRxBgxGg8HpUXb3s/1LG5W1soqHDtxI/1tqIMvte7yVtf1h7/1rtmchJ6eHtTU1qO5+VOZAtpXvUs00oy44AOa3o+9+w+oT9EIJi6aIv9da+G8bNktrs7y43SPGUiIj5c3D9o8e9GFbnRB97Uv9CPVYuG8bPzPH2+MRxI3IAvnZeN3O3chKirS5w1hWFjooAMHkaOsHSwuZi7pTy+Okc7OSyjevFX+W4z1MDpPYe6Bjeue2yB7mmyNTdi2fYduELTIJ/6fPx6RKVfCwnnZKD98RH5u9ZxmzEz3+H1bCot89m6NZelpKUianojf7dxlmK5B/rG5Z7eLjIzwOkBYjKPS/s6MyvfOXXt8jj0U4y+0g3lFepa/KZqioU37WxP7EIPJxU2lOmOg+D0zheaG9LQUdHR0eqSeDSZo06Y8aR/TBq/Wyip88kmz5lUD42+9KxrK3vjDmx7Xpb7qXaKRZEQGH6JS3rZ9h262Chq5+rrwipad0r37sWb1Sl0XefiUOERGRmDN6pUyhSAyMgLhU+L67EL3tS/BUpCP429X+LwYmc1JGDduHG6//fbvK/qwUFy9+o3uMSPacScDvYE2+t5i5pLBtuClpjyI2T/PkBfkbdt34NCB/YbnCe5jujwvV44/ETdh6ucQx0ykXAlZczPlTC3acyJuCM0zktDwYT32lR2Qn6mjoxNna6u9fqZgMRpw7m1KzkAxmUz4yX334erVb4a8h22ssrtnvbt+/brHeCLt+TP6nanl21pZheLNWwAAOUuf0u1L3MiZ3TPpaW94ExKTsTwv1+/JLuBOGdX+1sQ+tPWXuk3InZNRW1ePU9aKYf+9jBTPrt+AzNmzdD0fvmZJ9Ed6Wgqio6KQkJgsz3vW3EwsmJ8trzevvlaKNasL1ZcOiL/17sJ52fjLyUr85L77dNelvupdohHF5UXD51+oD9FNgud+7Dhpfdf18PxHXb29vepTg/aV3e5KnTnb1WBrVJ8aNqO17L5Sstv1zMrV6sM3ndF6/uh7wT6H3uqh3t5e18PzH3WdtL6re5xGh8GUo2dWrnZN+Je7Pf5eKdmtbuqVKD8jtV5+pWT3kFzbB3Pc+2NE9nwQ0chXvHkrxygEgEivMFpHhoh8u238eEyYMAGle/frHt+7/wDa2tuZmnaTUic1ET1h3rIfVOfOX8DHDTaPMT6DIcZwDbQ3bixh8EFE/WIpLEKIO1XKaFAv+UeMG/CWXkFEfTOZTNj/+muoravXpchVnX5vRKRy0sgg0vm16yr5Iqa2Ztra0GDwQTSGZc3NDHjlKaY2DvR+bzbadRsYeBANnJjpUNvSzfqJ+iIG5YuAVZ285pEFj+l6SnxtL4hGJbGNmJTCWlmFhMRkdHZekmPJRA+I+hqjSQJEo592n6MZgw8iIiIiGrNsjU04/vb3i7g6nU48uWQZIiMjZMBatrcUD81b5BFQwB149LW9tbJK9mR3u9ceq62rh6WwCFlzM9HS3ICIiHCUHzooG51sjU14aN4i+Zruy12IjIzAk0uWyQDEUliE2rp6uQ7YwnnZOHL0z8onHF0YfBARERHRmKHOeqdOnX3u/AX09PTIBTuhmYpbrCKv5c/2x05UIGfxE7InOyw0FKesFVj3qyKPngyh+kwNFszP1vV+WwrycbGtDefOX5Drcm1/eatMIcyam4np0xM1exl9GHwQERER0ZihHXCes/gJpKY8iPS0FPm83e5A86f/0E1hHT4lDnX17+v2I/S1vdPpREdHp8fivWGhoYiNmeY1BbCltdUwUBIr3tvtDrhcLo91zkb7BCUMPoiIiIhoTBILV9fU1svHWj5vRUREuExl0v4ZLSza1/bf9fairb1dfZlPImBRZ+bqvtyFr9ovwDwjCXa7QwYiYwmDDyIiIiIak8RMV6++VirTnzJmpsPlcsFu929R4L62DwsNRVpqClpaW3WP2x0OrylXJpMJmbNn+ZzOVyzQrL7vsRMVun+PNgw+iIiIiGjMEr0fe/cfAADExcZgSnQ0Nj7/orzxt1ZW6Wah0vJn+4XzslF++Ij8t93hwJysbDl4/Lbx4xEdFYWWz78PUDJmpus+F9wDzBOT74fd4ZBBzbrnNsDuuBGAiMHzoxmDDyIiIiIas0Tvx7btO2BrbILJZMI7x48iMjIC4VPiEHLnZOQVWFB9ymo49bk/22fNzUT1KSvyCiwIuXMyEhKTkZaaIqd9NplMWLXCguLNW2TQYp6RhIYP67Gv7IAc89HR0albo6Z0dwnSUlPkeJONz7+IXa9sVz7hKKMueS4EYol1dYn7e8z3ub6y29XNgqbB1uj68Yx/dTXYGl0u9/L0w/2ZRqJAnPvBOGl91/Xw/Eddvb296lPD5pmVq13PrFztcrlcrt7eXtfD8x+V/6aRIxBlt7/1gigPJ63vqk9RPw32/L1Sslt3zTH6jfqzDQ3cYM8hkWsElCNRr79Sslt9akwL1nEfkp4PsRBLR0cnLl08JwfQpKWmIPn+FMM5lIdDS2srrly56pFLNxh2hwOJyfcbdtvR2CAGlvnK0ySi4Nq5aw+2bd+B6lNWdCtz7PdnGxpdeM2loSCu8wk/1M9eRYExJMHH3v0H0Nbejv2vv6abXqx0dwkWzM/W5cwNp9LdJXJGASJ/idV0B7OCrrhgGq2QSkT943Q6UXX6PSyYny3r87DQUCzPy0VtXb0c9NnXNkREO3ftQUJiMqKjonTT81LgBDz4EBX88rxcma+mVbq7BPtff03+W11W3qgFqq9tLIVFsFZWwVJYpLuZE4OBQu6cfGPwjtLDYa2s0i1jbykswpGjb+GRBY95fS9x0yieV98vITEZnZ2XkLP0KZnTZ/Q67fuK14rvEXLnZOzctUc+N9pYCosMjw/c53LJsjwcOfqW122Ev1jf9blNX8cU7kpEPB+inE+n04kly/JQW1ePRxY8Jgd4iZ478Rqjc2EpLJKPi/1YK6t0n0d9nfazJCQmY/vLW70Gv0ZlUf1+3sq9+p2NWgT72kZ7Dvv7vPp7VT/3aNTX8YK7pcxbuRlIGTF6Xj22av1kVG7UbcYiMWuMOse+ttXSn21o+Hirj9V63t9rrvpbGQv1EAXHmtUr0X25a1ANjNQHNQ9LGGjeV4Ot0RUWOc2v/Gd1W6Ncen+2eWblalfKz2bpcvNOWt91TfiXu+XrvrLbXQ/Pf1Q35kMdWyDGqGhfc4/5Prlfo/c+aX1Xlx8uXqP9/up+XO730r73Seu7rh/P+FfXv/3v3GEf6zDQc+/y8r3CIqfJYy7Op3YbNcdenDvtcVa38feYat9bzeHs7e11/dv/znX9eMa/epQv9fOl/GyWR5lTy4XR9xT7VcuJOv5IpZZFo7JnVO7V46R+DvE6o+MttlGPo7qPV0p2ez3Oavk3+txDaTBlV1CPofpv9Xhoy4y38z/QMqJ9Xv230bFVy43R72QkG+z5O3f+gu7faln1dxsauIGeQ1/1cX+vuepvxWVQr9HINtByRIMTrOMe8J6P/ijdu1+3rLzJZMKWl15ATW2dbNnwZxsACAkJQUF+rvy30TL3q1ZY+lysRX3N8rxcOW+z3fE1dr2yHaW7S+T2ZnMSQiZM8OhV0So//CdER0XpPl/xpg1oa2/XLXpz9eo3+PWzvxq1kbatsQk1tXXY8tIL8jtkzc3EgvnZKN27X243ceIdum1yFj/ucQwjIsJRvGmD/HfO4scB97EU//XnmGp7FkTLp3Ye7p6eb5GelirP+bnzF3CxrU33+QrycxESEiJf4836dWvle4mZNcSUei2ftyItNUX2Bopp+6rP1Oj2oaUti2KWjONvV3gt93aHA/vKDmD7y1vl+5hnJGH9urVyfnO7w4HaunrdNllzM/HR32sRGxsDu8OB5uZPdd9ffBcxr3hLaysiIyN051i7IJJ2NVaTe4YQ7W9mNPHnmAqZs2d5Pf9CX2UkOioKt40fL5//qv2CLAP+1oW+6rCxLjZmmvx/ce4yZ8/S1an+bEPDQ62PB3rNrT5To/utwD3V6sW2Npw7f0G3LREF37AFH05vS9GHhWLcuHGw22+kv/S1jaC9eHh7ndmchJhpU3WPqdTXAJADi2OmTUXMtKm6dK6ExGRc+OJL9SU66s0aAMP5nu9NNiMuNkb+e7Sx2x0YN26cvPEUEuLjdYOz7wgJ8dimu6dHdz61N2EwWMDHn2OaNTfTI4WqePMWub2wcF62/H+j7yCClr4YpW+Iz5vww3hd4CCCnIyZ6corvqeWRaPFhrTlXr3xFxJ+GI+29nZ819vrdZvYmGmIjZkGu92BC198iYw5Wbr0n/LDR+S2loJ8HH+7wjCVwTwjCelpqfL1RulJo4m346U9ptrH+mK0jSgjOYsfR1t7O8KnxMmUE8FbnWZUF6rbQFOH3UyKN2/1aKBQ+bMNBZe2Ph7MNbf88BFdHZYxJ6vPxkciCo6ABx9xsTG4N9ns0eInnL/wBaCZScAXf7YxMtDX9UXknq57bgNamhvkbCm+Ahpx03Az8HbOA83fY7pz1x6ET4lD5uxZcsa14k0b1c10huo7ZM3NRNneUnlTnjEnC7/b9p+G4z0Gym539Hlx7WsbcRMrZgPS/onWR9Ei3325C5mzZyF8SpwuCCndXSJ/G+ue2zCqg5C+jlcgiYkMui93YfvLW5GQmCyDkKGq08YqS2EROjo68cc33/Dao+HPNjS8BnPNzVn8hEcd5m2MHREFV8CDD9FKvK/sgK7lTtj+SgkSk+8HAOOl6DUtjWprt9E2Rry9zmZr6rPFxBeb7Uar9SlrhUzBsNsd+Ka7W9nye+J4qC2PY3Eat4yZ6XC5XLpWWHjppeiL2qos0oUS4uP9OqZO98QHxZs2Ys3qlXIbtUyojL6D2NdgWCurcOxEhe5CqE0JMKJ+VputCVeuXPVa7o16RqCk83jbRjQKeHvemzWrV6KluQE9PT0e6QziZrp400aZsjXaeDseaopUoGXNzcSli+cQHRUFm63Ja53WV114sxE9nb6CCn+2oZEhkNdcIho5Ah58wJ0jHx0VhTlZ2boAxFJYhONvV+DQgf0ICw2V6RuiVdTpdGLj8y8iPS1Vtk74s40RdZl7p9OJV18rVTfrl7CwUFy5clVWiOKzaFtG1dQfaNIp9u4/IB8T3f1jaRo3kXKjnUrZWlmF429XwFKQr27uU2fnJRRv3ir/Lf5fjP3o65iaTCZERkag6vR7us+iTR8yIsZiaL9DTW096urfVzftl/S0FHR0dOrSAEIMZjPSMiq/2mlCVSK/f91zG+TvztbYhG3bd2DVCgtMJpO8idVuY62swn0/TcPOXXsMnxezxuzctUe2RGpnULLZmtDd04OwsFDs3LVHNxuNCNyMUoFGIvF5xfgcf45pIIgbYm0PkkjNE4HFQOvCm4WtsQmxP0pCZGSE11lq/NmGRo6BXnMzZqbj4wab7vpgKSzySGckouExJMGHyT3IVLscfMidk1FbV4+GD+t1Ay5PnnhLLkUfPiUOkZER+sFlfmxjJGtuJsoPHZTT78X+KAmrVlh8dtf2xeweaCr2GT4lDo8tWoBJkybKgcMm98Dg4s1bZLpJWGgoTlkrsK/sgDwWY7XVrXR3CSIjIxA+JQ4hd05GXoEFJ0+81e+bo+JNG5EQH68rO9rWL3+OqRiALj7Lq6+VYt2vinzO6W8ymfDHN98AAPm6Yycq+kzX6suz6zfo0r+6L3eh+pQV27bv8JqSJHoMRFkDgN9t+z4gM7Jm9Uosz8uVv7uMOVko21uq62Up3V2i2yZn6VMoP3RQ9hCpz4t9rFm9EmGhoThbW60LpPIKLLJBYc3qlbr0MvF71fY+jUQip9zoOPtzTAdL1Jna346amjfQuvBmYHc4sDQ3H9evX/fI9RfBsD/b0Mgy0GuueUYSGj6s97g+nK2tltcQIho+41wul0t9EABsrV/CHD/wG3UavXjuA8vucODxxb/A7pIduiDM6XTiySXLsGqFxeNG1lJYhIT4+BF/0z7SsOyObjx/ox/PIQUCy9HwCNZxH5KeDyL63m3jx2PChAm66YYBYO/+A2hrb4fZ3L9eISIiIqLRisEH0RAzmUzY//prqK2r16V6VJ1+j2kAREREdFNh8EEUBGLmJ+2YD18DXkt3lzDlioiIiMYcBh9ERERERBQUDD6IiIiIiCgoGHwQEREREVFQMPggIiIiIqKgYPBBRERERERBweCDiIiIiIiCgsEHEREREREFBYMPIiIiIiIKCgYfREREREQUFAw+iIiIiIgoKBh8EBERERFRUDD4ICIiIiKioBjncrlc6oMAYGv9Un2IiIiIiIjGKHP8VPWhgPMZfATjA9DIw3NPoxXL7ujG8zf68RxSILAcDY9gHXemXRERERERUVAw+CAiIiIioqBg8EFEREREREHB4IOIiIiIiIKCwQcREREREQUFgw8iIiIiIgoKBh9ERERERBQUDD6IiIiIiCgoGHwQEREREVFQMPggIiIiIqKgYPBBRERERERBweCDiIiIiIiCgsEHEREREREFBYMPGhJ2hwOJyffjkQWPwel0qk8HhKWwCDt37VEfDpqdu/Yg5M7J8u/uqBjYGpvUzWCtrNJtN5THxOl04pEFj8FaWaU+RX0Q58nb+bE1NuHuqBgkJt8Pu8MBuMuA9t99CUaZtTU2IS1jjt+faSxRf5OWwiJ1E8B9HrTbqb8X8TvytY36u+7rPb1RP7NR+VC38VZGxwL13PTn9zUSiGuf0XkkohsYfNCQKD/8J7hcLlxsa8O58xfUp0c1cWOyr+wAWpob0H25C92Xu7B+3VpkzMnS3aRYK6uQs/QplB86iO7LXbh08RwA4Mkly8bszcNo93GDzbDMVp+pwcSJdyBkwgT5WEtrK65cuQq7ffTcHI1VO3ftwbbtO1B9yoruy11oaW5AbV29LhgQv92Ojk5cungO3Ze7UH3KirwCi/zdOp1OPLlkGQDIbcoPHUTO0qc8ApCcxU/I37/4K91dotvGF0thka4eaWluwL6yA7obV6Pv1dbejmfXb9Dta7QzOjfdl7uQlpqC5PtTZMOOuLlXz8VABHJfgt3uwJUrV9HS2qo+RURuDD4o4JxOJ6pOv4d/e/IJTImORvWZGnWTUW3v/gNoa2/HKWsFwkJD5eNrVq9E8aaNWPfcBtlSd+xEBVJTHkR6WgoAwGQyYdUKi9cbXBpeERHhuDfZ7FFmRZmekTRd93jp7hJ81X4B5hlJuscpuMT5WTA/W56LsNBQLM/LRW1dvfw91tTW4+MGG7a89AJMJhMAwDwjCevXrcWrr5XC6XTi3PkL+LjBhlUrLHKb9LQUpKY8iGMnKuR7tnw+uJtLW2MTjr9dge0vb5X1SFhoKLa/vBX7yg7A7nDI77V+3Vrd99r+8lbd9xoLzp2/gIttbbpzAwC/27bV8Dc5kojemp279sA8IwlftV/oVxBKdLNh8EEBJy4i2Y88hMzZs+SFVHA6nViyLA/WyiokJt/vNd1ATWvwlmogWq/UdAeRJnP87QqPFAp1f+p7qfsSxM3A8rxcXeAh5Cx+HHD3/ADAwnnZiIyM0F1Mw8JCMXHiHfLfKvG5jT4nDD6r+ryqr/2J4yeeH21pDoH22KIFqDr9nu4YiTI9Z9bPddtaK6s8jqeaImPUqqpNLVHLmno+jNL51DKg7uNmYzKZkDl7FhLi43WPJ/xQ/+9jJypwb7IZcbExusczZqbLXtq42Bj8PONnCAv7/vdtMpkQGRmhe01La6vH+/VH9ZkaTJo0EWazPnAV/7bZmmAymfDO8aNYs3qlbpux6urVbzx6EbXHwFpZhYTEZHR2XkLO0qfk70tcU2rr6vHIgsdkHebrt+RtX/CjzlSfB4Duy11Ys3olnAapr+rnUPdHdLNh8EEBV32mBlOioxEXG4OMmem4cuUqbDb9zVNPz7fIK7Dg0IH9MvVh2/Yduso/r8Ai05W6L3chMjLCMNXAW0tg9Zka3JtsxpzZP8c7x4/K/bQ0NyAiIhyZs2fBZDLBWlmFvAKLTGu4dPEcOjo6DW/oRKuoelMj3DZ+PKKjomSXe9bcTBRv2qC/2bc7MG7cON3NjXzO4cDS3HyU7S2VnwWA/N79OS5wb//QvEVyf2J7kfbldDqR//QKLM/L1aU55D+94qa9OP7rvcno6enR9UyJMh0fF6vbVqWm0Ril6xw5+mcsnJcty2JtXb0MvMX5SEtNkeejbG8plubmy7Ldn/J6M1mzeiWyH3lI91jL562IjorCbePHy8fUxgC4GwTGjRsHu90Bk8mEvb/frft9Op1OdHR0egQbt99+26BuKtXPBm0d4qVnxe5wYN1zG7w2gIxWcbExuDfZ7PF70cqamynrb1EHZs3NlM8/s3I1Vq2woLnhQ9w2frzP35K3ffVVZxrV0R0dnR6NZ4KtsQnJ96fIOpapt0QMPijAnO6eAXFjb56RhAXzs3XpCoI2lUBsJy64vb29OP9Zk+7CsnBeNjo6Og0rbG1rITSfQ5s6IRRv3oq01BTZmnjsRIXus4jUKDWY8YdRC2lYaKj8DE6nE6++Voq01BTDGwe73QGXyyVvfESrn+jC7+9xqT5TgwXzs3XbWwryZSvvd729aGtv1wVTpbtL8M7xox7H7WYRGnoXEhPvkWke2jI9XrlR1LI7HKitq9el0WTNzcRHf69FrKalffr0RHk+RGqQCFbtjq+x65XtupQNszkJIRMmyBbhQJbXsSY2Zpr8f7vDgX1lB2Rd5C2AMGIymXS/T5GulTEzHdAEIztKXsUpa4UMJPszFqOltdUwEPJGtLYnJCZj+8tbx1xviKjrijdtlD0Ram+FLz093yI9LVX+tvz5LRnpq8602x0ImTBBXnNM7l43tbdUEI1gBfm5cvv9r7+Gkh2/VTclumkw+KCAUi/ScN8cG90YGfUeiJuwtNQUmEwmXXpKztKn1M2lsNBQpKWmyCDn3PkL6Onp8Uhp2LlrD2rr6lG86cYNgriJKN68Rb5PX+/li9ifN2K8iHh/lXlGEtLTUpExJ0uXBiD097i0tLai/PAR3XfLmJOFq1e/ATQ3v+Ji76317mazcF62vJkQZUmk1HmjBo5CbMw03U2xr5vfmGlTETNtqi6tKiExGRe++BIYgvI6lhVv3oroqCjdTV9kZES/BwKLngY14Hvn+FE0N3zoMV7j+NsVsDU2wWkwY5b2N50QH++10cCIGEvQfbkLx05UyNSivt5ntFmzeqXscei+3IUF87M9JvLwZuG8bPn/ff2WvOmzzgwLRXdPj0ytVRvcVEZBZlhoKGJjphluT3QzYPBBAXXsRAWuX78ub57FjVFn5yWP1CtfxAUD7lzabncKiy+Wgnw0N38Ku8OB6jM1SEy8R9d6aWtswrbtO3Qt06Llv3jTRt0Fr/tyl+7GQhCpAd5SImRPgsEN5s5de7Cv7IDHQHVV6e4S2ZK67rkNuhuJ/hwXcaNqNCOPdpC0uNhfungOVaffQwiDEJjNSTL1yqgsGbHbHfIGZaBEbvi65zboZkCKmTYVGEB5vVlZCovQ0dGJP775hscNntENv7fA0e5wYE5WNpbn5frV06AdzyUCFPU8aVvU29rb8V1vr2YPmjrEoHFGEI0X2nEhvt5nNPvdtq0eg/390ddvyYg/dWZYaChOWSuwr+wAQu6cjPApcYiMjDAsH301RhHdrBh8UMCItBOjG6OcxU/06+Jx7EQFchY/oesy93bDL8TFxmDChAnYt/8Aqk6/p2sFczqd2Pj8ix7d6aLHxN/WUNHFrg6iF0RrmNpKLsYC9BV4aIWFhqK54UMUb9ooj11/jov4rEY3W0bETUz5oYNeUwhuFmGhoUhMvAcV75z0KEvemM1JmDRpokdKx/kLX+j+7YsI0LXlxG534JvubmAA5fVmI3oBvAUeC+dlG840px2nJmhz9Y1uLI34Gs+l8jYeTvzbbE6SN9A3Q2PAzn6umdOXvn5LRvypM+0OB/KfXiHT7bp9TK/sbX+ix4roZsXggwJGVPbqjTfcF32RjuCPhPh4XaqW6LXwxeTOff+fPx7xSLkSedi/27ZV84obFs7LRvnhI7J3QdzAeBs8WpCfi+ioKMzJytZdKHfu2oPizVt0PSvi5qGjoxNna6v7DDx27tqjy3EWXfqiJ6W/xyVjZjo+brBh7/4D8jFLYZG8yIueFG1Kw7ETFR5pAjejhfOyDcuSNyIw0E61bK2swn0/TfP75jEsLFR3QyqCZm2PSn/L683C1tiE2B8lITIywuuYpfS0FNybbMbG51+Ux0r8hrTjw3bu2oOMOVko21tqGHiI8RfaQf52d3qWt/FcKjHOTVtexD7EYHJRptTGjuLNN+oxf8rlaCGuG+pkF3v3H8DHDTZYCvIBPwbkC/78loz21VedGRYaemNmtcRkXWqWt9+fuj+ne1KJB9IyAhZoEY06Li8aPv9CfYhuEgM591/Z7a57zPe5nlm5Wn3K5VKe7+3tdT08/1HXSeu7um2eWblavl5sM+Ff7nZN+Je7XfeY73PtLzvoCouc5mqwNcrtXynZrduH0ecQj4l9iT/tvhpsja6wyGnyOW/fQ+uVkt26/d1jvs/1ld0un1e/g/qnfn/hpPVd3Xbaz6LuUz0uRsdW/f4Pz3/U1dvbK59Xv7v6/GgykLIrnLS+qzuHRmWpwdboSp05W25z0vqux/FSy4X2XBiV2VdKduveQ339/rKDrnvM9+lep54zX59xNBno+VPLuPZP+zsXnlm52us5Un9/2j/tuVZ/ixP+5W6Pc+sP9Xwb7UPdRq1rRpKBnkOXl2Nq9F215+ik9V3Des9lcNyMfkvqvlwG5Ul73o1+8+L9vV3ffO2PjA2mHNHABeu4D0nwoVbs6g97OInKaKg+i1HFM9oM5twPt6/sdlfqzNkeNxtD7aT1XcObHAqu0Vx2iedvLBjr59CoAcFl0IhAgzOYcqRtyBwIbw0QgQwaRUBqVJaG02COe38MWdqVOmCr+pQVeQWWfs9Fb3UvRBeI7km7e+rFe378o36NPxhOO3ft8dqdS56KN2/FhAkTPBYRG2pZczNRtrfU6yxVREQ0+iXEx3ukwYnUPX/GhtHoEBERLicq6B6C9VnsdgeuXLl6047fG7LgQ2WekYSTJ97C8bcrhu3GTOR+5uc9ZTj1K41eYupZbwNNgyFrbqasqMbKTDNERPS9NatXIi01RTfm46F5i3DyxFus98cwMabUaMKKgRBTZ3ubrGCsC1rwAc0AO22vgxiQK37E2sG2lsIiOU1rQmKyrgdEO3e3r8FeWsdOVCAtNQUPPzQX0MxMJNgam7BkWR6OHH3L8PMIO3ft0b23t94co8G8UGb1UL+/Ond78eYtqKt/H+FT4vz6jjcrMT2tt4GmREREgSCuN+JPO3U5jTyWwiIcOfqWbj0cb/dt/aVdc0t7v6dOHgPN5CCWwiL5/9r7QzGRhdF9raWwyGOCC3UmPFtjE+4x3+dxzzoSBTX4gDJbj5j1IS01Rf6Iy/aWYmluPuwOB0p3l6D80EHZ/SXmsbc1NiGvwILyQwfl6yIjI3yuLGt3TwO7cF62nEHEaDrRv1b/DQfeOIRLF8+h+3IX1q9bKz8P3AHFtu07UH3KKrviOjo6DWezyZqb6THFrNM9e9HyvFzcNn488p9egeV5ufJ7pKWmIP/pFQAgV3tNTXkQly6e4401ERERUT8VWFZi1QoLut3rvdTW1Rvet3njdDrx6muluDfZLNO6xXpC4n5RDC+wVlYhZ/HjHlOvnzt/ARfb2uTMbVq2xiY8NG8RyvaW6u5rRZqXulizzdYEl8uFDz76SN7HGk0ZPlIFPfjQsju+xq5Xtuu6nczmJIRMmOAxV75Wb28vzn/WpOviXDgv22MubS3t3OlwL0h3sa3No/ts4sQ7sOWlF+RNfs7ixz0+j7aVQ8zj7S1vTy0w2tWSjRaTKt1dwiCDiIiIKEByFj8h7xnDQkOxPC/X630bAJlxI3ohxGKS4v7M7nCguflT3f2iNrtHvIe28dlXcFB9psZjHTLtfap6b9zyeSseeWguenq+xXe9vbJhO3P2rFFx/ziswUfMtKmImTZVl0KVkJiMC198qW6qk5aaApPJpOvuyln6lLqZJCJW7fzrcbExmBIdjeozNbpt7wgJ8VggqrunR57wrLmZsrtMvHfx5i267bVEsCOCH+1qyaJw5ix9CiFcVZqIiIgo4MRaWVq+Gqy1A87LDx3ELbfcouuxsNsduPDFl3KSGfFXfviI3CZjZjqamz+VmT6+goOW1laUHz6i21fGnCy5Lk2Ye+Hb6jM1cDqd+OCjj7AkZzEiIyNgszXhu95e9PT0IGNmurrrESmowYc4+CIIEDlr657bIE9yS3MDYqZNVV+qI4IVALJ7qvzQQXUz6dz5C/i4waY7seFT4lBX/75h6pUvO3ftQfiUOGTOniXfu3jTRnUzSRv9iu+vnRFjzeqVMn2r6vR7DEKIiIiIRgixOGnp3v3yMdEgLVLwtX8imycuNgYTJkyAzdYkU66MggOn04mOjk6PWWK7lfFECfHxaGltlRk7cbExWDjvRk+LzdaE7p4ej8bzkSqowUdNbT3q6t+XN9+iN+CU9UYXFdwn9Jvubt3rVMdOVCBn8RO6dC1fq51Wn6nBpEkTddOmdbvz84xSr7wRwUPxpo26VW99dd3BHf3W1Nbh8JGjXldLNplMeOf4UZQfOtjvgIiIiIiIAk/MdHX87Qo5mNtsTvIY06ESafnHTlSg+kwN0tNSDScmENv56omBpifl4wYbbr/9dphMJoSFheLbb7/FR//vY112z0gXtODDWlmFnKVPoXjTxu/z7sJCceXKVRmEOJ1ObHz+RdnNJLZxuVy6E6wdtA7NHNtGRMCwPC/X46SI1CttNOuLyWRCZGSELjiwVlbputmMmGckIT0tFfvLDsqUK3iZDevYiQpERkbIbrmEH8ajrb0d3/X2ym2IiIiIKDhE78fG51+E0+mUExete26D7l707qgYXfaKCBjUrBdVxsx0fNxgw979B+RjlsIi3SyvcbExiIqKxO927pL7EuNH/uePR3zuf6QZsuBDzV3LK7Cg+pRV12NgnpGE9evWyjEP4VPi8NiiBZg0aaIciyFu3DPmZMmTUJCfi+ioKDkYaGluPra89ILh/Mt79x/Axw02w64uEW1qo9m+FG/agLb2doRPiUPInZPx6mulWPeroj7XDVk4Lxuf/uMzXeHImpspZ0cQx6mjoxO/27ZVbpOeliK/K6faJSIiIgou0ftRV/++DBBKd5dgeV6uvBfNmJOFsr2luvtckXrV1t5umPUimGckoeHDeuwrO6C7HzxbWy0brE0mE35y3324evUbmV5lMplw++236x4bFdQlz4VgLbF+szhpfdf18PxHXb29vepTI06gz/0zK1e7nlm5Wn14yJ20vuua8C93uyb8y92uk9Z31adHpN7eXtfD8x91TfiXu0dNeRlJBlN2teVF+8fzEDyDOX8ul8v1Sslu3blT652v7HbXPeb7PM7xPeb7XF/Z7bptaWAGew59EfVjsOvzk9Z3XWGR01wNtkb1qVGvwdbo+vGMfx1x320oyxF5F6zjPmQ9H/Q9u8OBdc9t8DrLAelZK6t0XY0D4XTPcFa8aSO6R9GK4zW19Whrb0dLcwOnXB4G2hlOxEQQAHyuIUQjw85de3RrMIm5/NXFxKKjojzG/4k1pIiMtHzeiuvXr/vM7yci/zH4GEJiNq+ExGQsz8vVdcXR0DJaQ2U0aPm8FdFRUbht/Hj1KRoGoqu9r7RKGl5ibN+C+dlyQKeYaVB77ux2B3p6epRXE/kmZqUcTCOWGA8w2IY1orGAwccQCgsNRXPDh+i+3HXTBB5OZQ0Uo2mDRVAmtrk7KkaOubEUFiFn6VNygR9tRa1dDybkzslex8BYK6uQkJiMzs5LcjyRGNQvLgBiH2qrqKWwCNbKKlgKi3SfS3A6nViyLE/2znjbD9z70n5e7cQC4j3Ed/rt717BIwseQ/HmLairfx/hU+J030+7L/Vz2RqbsGRZHmrr6nF3VAwshUWGn1O8TnsM1Auhr3MDzefeuWuP3EbdB/w4zuq5VJ8faa5cuSpbPb2VEV/f2VJYpPu3OM7a34etsQn3mO+DrbHJ8PyFePk90ffj99S5/NXGB7vdgQkTJjC4H4G8lfm+6gZtXaRu722f2t+RP9vYGpuQljFHdy3ypx7U1tsPzVuEkyfeMuxlE3X4kaNvye3Vuldsp61j1Gugev012oe27k1Mvt+wN8fXtYsoINQ8LCFYeV808gz03It8XG2O/Cslu10pP5slc6/FNtpc7JPWd3U51+q/Xe681LDIabpcX19jSURut3Z7dR9Gn+WZlatdKT+b5XqlZLd8TEu8Rpv/K95L+5pnVq7WHQf1vU9a33X9eMa/uv7tf+fqxhO8UrLbY4yBui81/7jB1uhK+dksV+rM2fKYic+pPY6vlOzWvaf6/dV/i/dSz42aS2/0+bTjbMTxEa9RP7/R+w7UQMuuy+C7ujSfTT23ahlRz6/6ndR9G51/7bk3Kmfqe4xFgzl/LpfLde78Bd2/1d/TSeu7st4Q4z3Gai7/cBnoOTQq82rdKrbR1qNGdYm6va/fkT/bNNgadfWrP/WgUdlT6xdBvJ/6eu326mdyKe+p1jkug+MjPrfYx1d2u+vh+Y/qxnwYfe7h+I0MtBzR4ATruLPngwJGLKKz5aUX5FiFgvxchISEyG3sjq+x65XtujVazOYkhEyYYNgCI/T29uL8Z026bu+F87L7nBdbq3TvfiyYny33YTKZsOWlF1BTW6drHQoJCUFBfq7mlZ7Wr1vrkd6xr+wA7A4H7A4Hmps/1R0H84wkLJh/YzEg4erVb/DrZ3/lc1yHrbEJNbV1un1lzc3EgvnZuimiv/jyIv7jN+s9WtS0U0xnzEzH1avfYNkvlsBkMsmUInEM/T03ERHhKN70/RgIS0E+enp65HTQYh0eOaV2aChOWSuw7lc3emSOnajQHb+RlNoketxEi1/sj5Kw5aUXPHou1TLSV9lSj2PL56145KG56On5Ft/19sq0IXVcmPY4iTLka02jm11szDT5/3aHA/vKDuiOacvnN1YRXjgvW473WDA/G0tz84e97NENvupWI9pF2EQPmLr2lj+/I3+20eqrHmxpbdWVPTHTkVhaQDVx4h26ej5n8eO6OqP6TI2ujoH7PcVaZefOX0BPT4/uM4npYcXsoUZ186oVFt3yBi2trbrp/rPmZuqOMVEgMPiggLHbHRg3bpxuujdxMRBipk1FzLSpuq7fhMRkXPjiS7mNkbTUFJhMJl13cM7Sp9TNvHK6VxBV0zLCwkIxbtw43c21egNoRE3nyJiZLtejsdsduPDFl8iYk6XrulbXg7k32Szn6PbG6JjCvdaNNvCKmTbVcBo/9XNOnHiHx74Ef8+N0ZiUb7q7Ybc7vB/n0FB5Y9jR0YnizVt0x6Y/53IoqQPOz3/WhI3Pv+iR3qAtI16/s6ZshYWGIjHxHlSfqYHT6cQHH32EJTmLERkZAZutCd/19qKnp8djSnD1/MGPRU3phuLNWxEdFaULEo1y98XNWvnhP8nHaPioZV5bt6qy5mZ6pBoVb96ibuaxTxj8jvzZRstXPQh3Ha0NmkTQYVRPA8AdISEedXN3T8/3DRatNwJnbb2ZMSdLBg52uwPNn/5D13gSPiUOdfXvAz7qKbM5CTHTpsp/WwrycfztCoQYpHURBQqDDwoYX61Egsh1X/fcBnmT19LcoKv8jIgbYgDyxrD80EF1M6/EAPRgkC1V7ll3tH/aXgV/+HNMA2Wg50arr+MsnhezkGn/jHKhh5vowfi4wYaa2nr1acCP7ywkxMejpbVVrkUUFxuDhfNu9IbZbE3o7unxuPmggbEUFqGjoxN/fPONPhsSbhs/HtFRUerDNArs3LUH4VPikDl7lqxHijdtVDcbFmtWr9StAZFXYMGhA/sHVMeJwCFn8RMe9abolWj5vNWj8UT8rVm90u96yjwjCV+1X0D35S5kzp7lMf6QKBAYfFDAGLVQiXQSQbT+nLJWyErYbnfgm+5uuY0R0V2svXnvz415mHs1UrUly253wOVy9fumT33v6jM1sofCbE7CpEkTDVvq+svomMKgazwQBnputLweZ8eNXhFvz49m3r6TWrbESrcfN9hw++23w2QyISwsFN9++y0++n8fIy01ZUA3JvQ90Qrub+CBUTwz3ljlq27VEteW4k0bdWmR6u9wuIgB62qQMBAig8BXmrG3a4XgrZ6y2Zo8ereFNatXoqW5AT09PR4LOBMNBoMPCpi42BhMiY7GxudflBVkTW297PaFOxXlypWr8kbX6XRi4/Mv6nJOw8JCPSrRhPh43ZgAW2MTtm3fIZ/3h+hOFjN3iPdOT0vt90Vh2/YdcpyIyC0X4ytEJb/uuQ26z3t3VEy/Zysyz0hCelqq7phaK6tw/O0KWAry1c0HxZ9z44+F87JRfviIPM52hwNzsrLx5JJlcDqdHs+LG8aR2rpWunc/Jk2a6DVdAn6WrbjYGERFReJ3O3dh4bxs+RgA/M8fb4xDoIGzNTYh9kdJiIyMMFwjR5QzdVai4s1bAR/pMBRcvupWLZPJhMjICFSdfk9XN6rprcMlZ/HjutWqxd9AZ47KmJmOjxtscnVtuHv4RHk2uv6KjAHxnkZ176uvlcr9id5v7Yxh7JWlocDggwLGZDLhj2++AQAInxKHkDsn49iJCl03uHlGEtavWyunwA2fEofHFi3ApEkT5aA4ccOdMSdLVqwF+bmIjoqSXdhLc/NlOoy/LTLmGUk4eeIt5BVY5HtHRkb0OxUKAHa9sh0bn38RIe5xEWmpKbrWt9LdJbou94w5WSjbW+oxcNkfpbtLEBkZIY9pXoEFJ0+81e+AqS/+nBt/ZM3NRPUpqzzO4viIG0L1eXEejG4Yg00dcB5y52TU1tXreoOM+FO2TCYTfnLffbh69Rt5ITeZTLj99tt1j1H/2R0OLM3Nx/Xr1z3y4sV0oyaTCe8cP6r7XYbcORkdHZ04W1vt8/xS8PRVt2oVb9qAtvZ2WTe++lop1v2qaNgnr3A6nch/egW2v7xVl/5Ufugg8gosHtPf+sM8IwkNH9brAhpt2RXlW71WVJ+yyjFOWXMzUX7ooKzjY3+UhFUrLDK1Niw0FGdrq9HR0SnfYzDpYkTejHO5XC71QQCwtX4Jc7z/ud40dvDce+d0OvHkkmVYtcIyqAWnaGiw7I5uPH+j30DP4ViqW22NTSgsWos/Hf6D7qbd7nDg8cW/wO6SHQFvPBprBlqOaHCCddzZ80FEREQUIGFhoeju6fGYQa1481ZMmDChz1kOicY6Bh9EREREARIWGopDB/Zj2/YduhRAACMivZRouDHtijzw3NNoxbI7uvH8jX48hxQILEfDI1jHnT0fREREREQUFAw+iIiIiIgoKBh8EBERERFRUDD4ICIiIiKioGDwQUREREREQcHgg4iIiIiIgoLBBxERERERBQWDDyIiIiIiCgoGH0REREREFBQMPoiIiIiIKCgYfBARERERUVAw+CAiIiIioqAY53K5XOqDAGBr/VJ9iIiIiIiIxihz/FT1oYDzGXwE4wPQyMNzT6MVy+7oxvM3+vEcUiCwHA2PYB13pl0REREREVFQMPggIiIiIqKgYPBBRERERERBweCDiIiIiIiCgsEHEREREREFBYMPIiIiIiIKCgYfREREREQUFAw+iIiIiIgoKBh8EBERERFRUDD4ICIiIiKioGDwQUREREREQcHgg4iIiIiIgoLBBxERERERBcWQBh87d+1ByJ2TdX/Wyip1syHhdDrxyILHfL6ftbIKd0fFwNbYpD5FgyCOvfa8P7LgMTidTnXTUWfnrj1ITL4fdodDfWpI+FOOfbE1NuHuqBiE3DkZO3ftUZ8mGlPUa46lsEjdBABgKSzyeV0yqsPUbayVVbrn+3pPb9TPbPQ7VbcZK/WpljjmRt8/EAZbl3qjLQf+7ttSWNTvcuKN3eFAYvL9Q3bciIbCkAQf4ke+r+wAWpob0H25C92Xu1B+6CBylj41Yn4kLZ+34vr167Dbg3MjeTOwOxx4IC0DkZER8rxfungOAPBAWsaQ37Tv3LVnSC/MLa2tuHLl6qgpM6V792PB/Gx0X+7CmtUr1aeJxoydu/Zg2/YdqD5lRfflLrQ0N6C2rl53kyeuTR0dnbh08Ry6L3eh+pQVeQUWeePodDrx5JJlACC3Edcu9eYyZ/ETsp4Tf6W7S3Tb+GIpLNJdJ1uaG7Cv7IDuGmn0vdra2/Hs+g26fVHwOZ1OvPpaKYo3bUT35S5kzc1UNxlydrsDV65cRUtrq/oU0Yg1JMHH3v0H0NbejlPWCoSFhsrHs+ZmonjTRuwrOzDkN6H+WLN65bBVGGNV8eatiI6Kwu+2bZWPmUwm/PHNNxAdFYXizd8/PhqV7i7BV+0XYJ6RpD414jidTnR0dCIhPl59imhMcTqdqDr9HhbMz5a/zbDQUCzPy0VtXb283tTU1uPjBhu2vPQCTCYTAMA8Iwnr163Fq6+Vwul04tz5C/i4wYZVKyxym/S0FKSmPIhjJyrke7Z8PribPVtjE46/XYHtL2+V18mw0FBsf3mrvEaK77V+3Vrd99r+8lbd96Lh8V1vL9ra25Hww+GrY80zkvBV+wWvQa/oGWGWB40kAQ8+RGW5PC9XF3gIa1avRHPDh/I5a2UVLIVFsutStPio3cxq69WSZXmwVlYhMfl+w22E73p7dd3n2hYlW2MT0jLm6CpwbZqKt32SMbvDgdq6et1FWzCZTHjn+FEUb9oAp9Mpz7mlsEhXKaqpDOrx91YuRItm8eYtqKt/H+FT4nQ9IH2lWUBTSavvqU3Ps1ZW6fYrXiP2q03JsjscSMuYo6vwxfba9/f2nbxRtzfqSbQ1NiH2R0moq38fxZu36LZTP7PaU+TtN0k0UplMJmTOnuURaKs3hcdOVODeZDPiYmN0j2fMTMfFtjacO38BcbEx+HnGzxAW9v31y2QyITIyQvealtZWj/frj+ozNZg0aSLMZn1Dhvi3zdYk6032Wt6gXh/UugtKXd/XDbeoS73Vcb7uB6yVVUhITEZn5yXkLH0KIV6uK+La5Ku+Vrcx+tzermHitd6uKQmJydj+8lbZaGZrbMKSZXk4cvQtn+9HNJQCHnyIViO10velprYOb/zhTVy6eA5rVq+EtbJK18186eI5dHR06n60PT3fIq/AgkMH9uu62NUf9oE3DmHLSy/I7vVt23cYVhBwVyYZc7JQtrfUa7c9eWezNeHKlau6i7YqLDRUBiabt76MhPh4WSlaK6uQV2DxOO/i+PsqF98HNxuRmvIgLl08h3eOH4XJZIKlsMhnmoX2sy3Py0VHR6fugnbsRIWuRVVwOp3If3oFluflypSLtNQU5D+9wuOC6I2v72TEWlmlS9PwVqbNM5Jw/rMmpKY8KFMC1qxeCbvDgTlZ2brPHBkZgSeXLNN9ZvU3STTSrVm9EtmPPKR7rOXzVkRHReG28ePlY5GRER6NI2FhoRg3bhzsdgdMJhP2/n63rh5zeulFvP3223wG8n1RPxsA3DZ+PKKjorz2rNgdDqx7boPXBr6xytbYhLwCC8oPHdTVXSL9TNyEa+v69evW4qF5iwxvrLV1r1EdZ2tswkPzFsn7AfV6lDU3Ey3NDYiICJefSc2icBqk8AHAJ580e2yjTVUu21uq+9w7d+3Rfa/yQweRV2Dx+r3Ua8Sz63+j2/av1X/DgTcO6Y7T0tx89qRR0AQ8+DCitlaoUfbVq9/g18/+SndB0Ka2iFYtNadR7YpenpfrkdKVOXuW3MY8IwkL5md7rdSPnahAzuInZAUSFhqKU9YKrPtVUb8uKOSfkJAQFOTnyn8fO1GhO6cmkwmrVlh06QX+lAstu8OB5uZPPdIsFszP1qVQCDmLH0dPTw/Onb8AaHpzFs7LVjc17HIv3V0igx5/9ec7qTdTostdveh5U374T4iOitId9+JNG9DW3o6a2nr5mNFvkmiki42ZJv/f7nBgX9kBZM6eBZPJ5DWAMGIymXQ39iJdK2NmOqAJRnaUvIpT1gp0D2AsRktrq2Eg5I1ohRct2UY3zGNZb28vzn/WpKvrFs7Llo1F585fwMW2Nl1dX5Cfi5q/Vnk0iImGrpMn3vJoVBLEeDnxfiaTCVteegE1tXWGN/1GvH2mkJAQ3TY9PT0o3vR9uUlPS8G9yWZUn6kBDMpK1txMr+m/LZ+3Ii01RZbfuNgYTImOlvsCgIkT79B9ppzFjyNkwoRRM5aRRr+gBB9ZczNlRF99yoqJE+/QPa92g2fNzfTohizevEX3Ghh0qWfMTIfL5dL9gNRtvPF2YQoLDUVszDS/LxDkP3FTAM3xFylC4i9n6VNye3/LhZbd7sCFL75Expws3X7LDx9RNwXc5zsx8R5ZUdtsNy4yamoENAGv6HL31lvhS3+/U87ix9HW3o7wKXEDmnVLvYjBS0ur+pskGm3E+DMRaJvcqVPeAntvRE+D2jDyzvGjuhRiMRbj+NsVsDU2efyuxZ/opUyIj/foZfVFNDR0X+7CsRMV8vff1/uMFWmpKTC5e7LFd9ReH+x2B8aNG+eRLhcbM00XSH70/z5GXoEFkyZN9AhKBK/3A5oeMn94+0yZs2fptmn+9B9ISEyW3yt8Shzq6t+X21gK8nH87QqE+NG7lvDDeFkGoQmAROAMAHeEhHh89+6eHr+/F9FgBTz4+P+3d/5BUV7nHn/8e81Ak3bYRBZ/W9pYXFJ775QfV0fDSA2g0eRKUpvgJdStoKSGVkfGhCRXG+8Qf0UdpoRqHJPR2NyYylwWUQcH5E6nM2Gh5JZoTIz4Y6kjss3u5M/3/pF9Ts85+767y+6ysOT7mdkZ2D3v+573Pec95zw/zvPMnzeXHst1WloXvN5hGhm5r3+tsP/gYZoxaz4VLV8mhJaGnfV6sYTCWmwQO05nDj300IOWA9hn1z7XvxLw82cXIfnDE3ws/YLrwm5N8sdqg97q0hLquHCRAoEAnTnbqmiRdDhowa3rV6njwsUxCyFjvSd7RgYN9P6FRu/epsY3dlP2wtyohRCeUAGY6rCr5fvvHQ9RHJkt+L3eYTIMI2RBJrspRmNpsNszhHKNBRR93JE191/euEFf+f3SGcwtqjqsJZf3hYS7zlSAPSiISNzjyRPviN+t1hw6jfsO0MF9jWEDoCRqPRBNnQY/vUKZmTOUyKD84T4nC55Fy5eF7GmUKV5RREebm4TCbenjxfTmnt+ZWkkAmCgSLnywVK+7PzFmri4ygeCG9Yad9cpgb6at0l/szktdIVqGaLFnZFBBfl7IdVizBCLDz5CjxsgEAgGq3fobywHT6vkzY+kXMpEEIjOczhzy+XzU1d1DAwOfkKuqUi8SAi8ATp54RwguZKJN4rCIFMc9McUriujW9as0MytLWGjCwe+mvviKZrEDQCrAVgArwWN1aQl93OsRbpVM56UumjVzpmLt8/T1U+5P8qIWPMhC023F0iWFdO/eSMi7K1tbOTjEWBQaUxV2i5aVRvIawMzzIRAIhKxDTp54h55e+yRt3uRSLAQyVvORlZBqhVWdOi5cDFsmHC9uqabBgV7FPVjG3d5BZ85+4wo4VQVRkPokXPigoE/jzKwsery4RHnxedPU3DmzlfIybBqXF3Du9g5TN5k9jXvFwMH+vfFswltdWkInT50W5mrWeumbcYE1vH9AfmaB4Ia6L2/coJbfHwlZEDD68+eFxBOr1hIFN4pG6hfZ31+gaBN5EqnbvkP0RfadtprQ2fXq+LvvUVaWw9L9iDVxsnvDmbOtwq2J3ZlY4A4EAvRfb+5TNKPR3BMjPw8uzyb1aCdDdttqbjkmvmP3lMKCPKUsAKmEJxjhzeHItNx3xb709S+/Kt4hT18/7Wncq0Tp23/wsAg+YiZ48BgiByNh96xwllIZ3nsmj018Dp7HePzSlXmssTdzB52qZC9YoOz/43ZjeG+D3LbNLccoe2GuqQta8YoiWlVWopSXYVcneT6qf/lVKizIj9qKYFanru4exaXKrIw8t7AAKvc1j6efRn0+03G/sCCPhoZuhrjhWc13AEwIhgW9n36ufzVmNlZvMdK++7D4bKzeYvj9fuOZX1QYvZ4+wzAMo819zlhZtsbw+/3iuDter/Goc7E4bmXZGuP1XW8YjzoXG3e8XsPv9xsry9YY7//xv42VZWuU8zNcps19TnxnBOu078AhwzAMo9fTZ+QvWW7c8XrF772ePsPumGN6zm8L8bY9P3u57fU2lttBJtzzj9QvDO3a8jX3HTik1EfvFzpt7nNG2ncfDqmj3l/1+ur3qf/OfZavH+mezPqx/l5Z3Qsfq9+D2TXlOuv3mErE23fBxBJr++l9Wv7YHXPEfMOEe4f43Tf7yO+F2Tinv2vRoI9NZufQy8hj3mQj1jY0e57yM9F/f9S52Gg5+k5I+8ptK/9mNpZyv7Ea7/TxW18P8PFWY7Bhcl889+nnsqq32TnC3ZfZ3Mr30eY+Z7ruieY+kk2s/QjER7Ke+7gKH+OF/rKBxDKZ2x6AcMTTd9vc5ywXdTzm6AuGRKEvhvmT6DGOFxn64mSyEE/7gckB2nDiuOP1GvlLlocI26m4ZkpEP+L7thrXpyIbq7fENU8l4rlHw7i4XQEAwFSC98Xo+2USSfm6pxU/bc5Hk8g8Q7znSPdlBwCkPg9Mn05paWnU1NyifN/ccoy+vHHjW+WmR1KIbMMwQvZWgYkFwgcAAESAo4xZ7SUYD5yLcqjt7IeK33m8cNQcq0hvAIDUxWazUcvvj1D35R5lv0fHhYv05+7OqPYiTSU4QXBhQX7EYEcguaSk8MGRhRDBAQCQLFw1tcqmTd50zBO8Hslt/8HDygIgFguGWUJM3oDK55WTtu4/eDgkiSsHKnDVfJMs9YlVaxVhRq8nNqYCkLrI4dj5k0ylyWTBKyUIXl1aYhrZzFVTS6c/+FDJk6OP49GUcbd3kKumVgQK4DFUnyN4DjALHiOX5/FZP14vz+dJxbE7JYUPAACYSLzDw7S+opKONjfRaDDPCxGJ7Nbu9g7a07hX5Je5df0qDQ3djGlykKP8BAIBqvzlJirIzxMLi6PNTbS+opK8w8NUvu6pkNDSHBHNLGS0u72D3j56TOQY6Dzvpj2NexNmaQEAgIlADlnNIfflLO9MlauaNm9ymY7jYynT1X2Zjr/7Ht26fpVe3FJNnr5++lnpk8ocMTR0k1w1tWSz2WjzJldInp/OS130WK6TCgvyQo4fvXubHI5MEUk0EIwiSkR06/pVGr17m4iI/vrXAXG+yQyEDwAAGCN6vH+2xsruTHduXFMyYhctXxb3Xgvv8N/p4L5G5TpOZw6lp6WR1ztM9owMemFDhWIpMcthwQx+eoVmZmXRA9OnE0luWbAqAwBSGTlBMI+Lclh7pnzd02K8Y6FAt5JEU2Zk5D799qVfCwtTU3MLrSorUY7b9dor1NV9mTx9/VRYkKfk6AoE878ULV9GNpuNOi91KcdTMPzz9S+/pKufXRNKpV2vvSKuWVVZQenp6aL8ZAbCBwAAjBHnohwqLMgXWYR1S0HxiqIQk3jD67uUMrEwd85smjtntjDvp3/vEcpemEvXPv9ClFm6pJAGBj4RlhJ5QtPhvC8zZs2nhbk/UXJJAABAKuLp66eP/tRKq0tLxHdLlxSKhbtM9gI1ua5ZYuJoyjyW6xQKnkAgQENDN0OOs9szaNq0aeT1DguFFCuKWJhYuqSQKJhs+OSp02KcTw9mqx8ZuU9kkdCUz5kKQPgAAIAYaDp0gEbv3qbBgV6q275DEUL2HzxMM2bNp6Lly4TJvGFnvX6KiLDwwBo83u9Rt32HcJUaHOhVErfOnzeX0tLSyOPpD5nQdGT/8MY3dlP2wlwIIQCAlKbzUhd9/fXXVL7+eWXhfuvWbVPXq0TD0REjISuKZAs1Cy96BMTRu7eFRX3w0/is6BMNhA8AAIgDXsA37KynM2dbhcDQsLNeyY4di8sVZ0NmDR6b6M+7W0XkGq93mO6PjopjZI1a56WuqDMyF68oolvXryquAAAAkErw+Gu2cG/YWR/ieqWPyx5PP927N6JYFKIpI2PPyKCC/LyQ43R3XVYUdXX3UMeFi7R5k4tsNpsYw8OFdl+6pJAMw1CsL3zvqQCEDwAAGCN6VCke9LMXLCCbzUYOR6YyybnbO+jkqdPaWcLjbu+g8vXPU8POeuH3a7dn0L17I4qfcP3LrwpTPMMatY4LFxXXAxl2C5MjqLClxGpSBQCAyUy4ABtLlxTSx70e6uruEd+dPHVaWKwDgQC9daSJVpWVKAqbaMrouKoqlTDpPFbLyiAWMo4dP0EUdOdiuK7NLcfEd66aWmGZnj9vLs2aOZPqX35VjN+srEoFIHwAAECQmzdvUfbCXMXP1swN6cUt1XS0uUns+Zgxaz45HJnC0tGwc4fYS5H+vUforSNNVPfrWhG1ygzdv3dDlYs6z7sV64lzUQ5tq9sq3AlmzJpPa59cFRLJhTVq4RKL8SZ5hyNT1HPp48X05p7fhZ1UAQBgMsILfKsAG/PnzaXHcp301pEmsWBnizWPp0REb+7ZrRwXTRkdztO0ocqlzBF6jiUWMhyOTCUPi3NRDvX+pYfePnpMzAlDQzdFvhabzUbvv3eciEiM32fOtsbk3jsh6CnPmXhSrG+s3mKkfffhkE+b+5xeNC7ueL3Go87Fxr4Dh/SfQBzE2vZ+v99YWbYm4e0cD72ePuOHi35s9Hr6DMMwjH0HDhmPOhcbd7xevSiYAsTad8HkIN7223fgkDLnbKzeohcxej19ht0xR5TBeJBY4m3DVIHnO7M+Fi/jee5UIRn9aGP1lojrx2jKTCWS8dwNwzDGzfKh+9t1nnfThipXTIm2rPB6h+nevZEQvzoArBi8coXu3RtR/CQBAKnP/oOHldwqgwO91H25R5lzzGLnv7Chgh4vLrG0SAHALopynh7eVBzOLz9WEnFud3uHqdUWgMnAuAkfOmyCkn3g4oVj0utmLIYjw+gZf8G3l6ZDB5T8C7HAGaETKUgDAGKH99zIftgc2192dZOTeDHl654ikjbzAxANHGhiPLKHj+e5AZgMJE34oKCwsKqsREmAxRoF9mkzExRcNbWKL7S8geeJVWsVYYYXhunB+PeNb+wWi01PXz89+9wGOv3Bh2GvFy6lfSAQoGef20Ddl3voiVVroVkw4Su/X2lTeZFu9fxYULRqF3d7B7lqapX2NXv2cv6Dhbk/CbFwuNs7lPZ01dTS6Q8+tKwvSUIs/95x4SLdun7VVOjlenI9WFMm10u+Bp9bv6a7vUM8A/0dSdfySpj1a75H+XmZtQNrx8zKAJAq8MZNPa5+9vfV/61IT0vDJvtJgD7WyfOAvNmWcdXUijJm46A+VlKEa/A5eRx/OGsunTr9Ac37QQ5d7vlfanh9F6VL4zrPSUy4tQOFmQfMkM9tNV7L15Zx1dRS+frnxR42+blFqoP+u34PZnOmu71DmSf1ZzpZaTp0QNlTZ0Y0ZUAM6H5YTDx+Xxurt1j6Kso+92Z+jW3uc4bdMUfx0V9Ztsbw+/0hv+t7DNrc5xT/Xd3fn3195fPpewC4jLxvYWP1FnGM3+83nvlFhfHDRT+eVHsbEkmsbc/tIbefvi/H7PlZ9QO5Xdrc50J8uOV2kcvwee94vcbKsjVKH2hzn1OO4f1J8jF6fVeWrVF8PsP17zb3OeOHi35sPPOLCtM+a5jcr97HDe0a+n1a9Wsuz+fP+7dlot56v46mrVKRWPsumBzE235XP7um/K+/W/ocoL+LIH5ibUOzttDHTnlc1H/T29asTLTXkMdO+Th9bNwo7Qfg8VMfY63qq/+uI5/bbLzWx3QdfQ7l78LVweyc8jPn/+Vz8DlXlq0R19LnrFiItR+B+EjWc0+q5UPn6mfXyOfzUcPOHeK7woI8eizXKSK3DF65Qg5HpjA9Fq8osnSbGfz0ikjGRcHIBrNmzlSiwDz44HeUdPTl656i9LQ0oSGPlNKeiMjn+wcVFuQrZcA/2Va3NcT14e2jx4TmRX9+3uG/08F9jYolwenMUdqFiCgzc4bSV1xVleTz+egrv5+IiM6cbaXydU//MyxpRgZt3uQKCUOqox/zwoYKsY/oK7+ffD6fkqRtdWlJ2KhFIyP36bcv/Vr0sTNnW5VnYrPZaPMmlzhH+bqnyOfzif7lHR6m7ss9tLr0Gz/0X/3yBcX8zv1afjYPPvgdEVqQtcC+f/xDuJSw1VFPTBSprQBIJebNnSP+9g4P09tHjynZ3Z2Lcuizv32jkZ0xa75lBBqQfKJZDzTs3EHdl3voD8eOU932Hcr4RSbzOx/f1NxCFOU1iIjS09OpqrJC/B8Neg4HjibHfSvSPBAN8vFWY3o4ItXB7/fTZ3/rV9Y2q0tLQvaeyO6NnO27aPkysfbS52YAdCZU+PB6h2ngk/9TQlvOmDVfiVPMsZLNzH862d9fQB/9qVWY+8yy+34nPT3EvD7q84mFXKSU9oxV7HwQ6upglgxHfn5z58ymuXNmK+be7IW5dO3zL0QZIqKZWVn0wPTpynf3R0fJ6x2mQDAjqO524XTmKNmfzdCPISIx2D4wfTqlpaWJyYuCA7gs5Oo8lusUYf64Xmyu50/5+udFeXtGBi1c+KiY/Nj33OnMIXtGBi3K+ZFiztffEbLo12bPSyeatgIgFWl4fTfNzMpSFpGevn6a94Mc2rzJRaN3b9Ot61dpaOimcB0BE0c06wF7RgY1vrGbtv5me0jbksk4yIoYHs+juQYRKQJrtDgX5VBhQb4Ivy33p2jmgWjQx2sySYBnRTR1KMjPI5vNRi7J1d2sjmZzplndALAiqcJHILgpkBdug59eoczMGTQ40BuSiZJ97JzBTeWjd29T0fJlNGPWfEshpHhFkRJ7f6wx6/nl1CN1jUop7UHiYV/Ruu07RF8YHOiNKDTIcHSQRGMLxtLmBUp6MNZ2pBjfDNerYWd9SJ8a6P2LEGBWl5aIpHSycMP+yT8rfZLazn4oFkz5eT/VLwUACOKqqaWhoZv0/nvHxSIyEMwBsK1uq9Dssna6fN3Tyl5EkHyiWQ9wuViJ9hqx0nTogJi/6rbvEEJItPPAeBJNHVgBSETit5Mn3tFPBUDcJFX44OyLrPUeq5b1xS3VNDjQq7ioyLjbO+jM2VblpRqLa5SuJQGxoU8OnZe6aNq0aSGaeYY1/efdrWIQ9nqH6f7oqFbSGntGBhXk54VogTye/hALylgIBAJU9asa2vXaK6JPjSUCiVW9dJzOHPL5fNTV3UMDA58IFyq23rWd/VAIv4kUtMbaVgBMZlhY1wUPiuK9wbg/sUSzHvD09VPzH45S65k/EhHRS9v+6T5FkiWcYYUnu25Hc41EYA9Gq+LkdNHOA+NJNHVg12XZDVGfIwBIBEkTPtztHVS+/nlq2FkvBAKz9PAsecvRE+RoDB5PP436fKaLo8KCPEVDzR+riBBmREppDyKzp3GvcH3z9PXTnsa99MKGCkvtjt2eQffujQghhDWUuqtbJFaXltDJU6eFuTsQCNBbR5r0YmPCZrPRcz9/VljT+DOW/mBWrydWrVUseOx6dfzd9ygryyHctuz2DJo2bZrij9zw+m66efOW+D8e5LZiH/lwbQXAZIVdqhyOTFMFAS++5D7Px330p1bavMkVcgxIHpHWAzwvVP3HBirIz6Ndr70SErp/ZOS+cnxXdw993OsRypxI17DCZrORw5EZduG+/+BhJcoTCz7sohTNPJBI7PaMEEErUh2yFyxQ9qDw/A1Aohk34UPfN7GhykWd592KaZNN3g5HpkgPz+WKVxSRPSOD/tzdqQgUG6pcdOJYi+ni6KVtO6ho+TLF8tF53k17GveGHVhknBFS2oPwOByZ5G49Q+srKik96Pq2rW5rWJO2c1EObavbSuXrn6f0oA/u2idX0UMPPagsuiNRvKKITp54R5yHfbvH4r6l4+nrp//83Z4QM31Bfh5V/nJTVJNG8YoikWST789sgbS6tIT+p62d/mXxYvG9PejjLPvpZj7yCOXn/TQhbiIH9zVS/cuvUnpwn01Bfl7YtgJgMuIdHqb1FZX09ddfh8w98oKw6dAB2la3VVEmLH28mI42N43JSg4ST7j1gNOZQ/9asJSISOzzkOcNnt/nzplNmze5aN4Pcig9uF/haHOTssHa6hqR2l/ef2qm0HxxS7Xi9s3jPI+n0c4DiULeg8LKskh1qKqsoJlZWWJPzPqKStr12iv0ca/H1NsEgFiZZhiGoX9JROS58gU5F8S+aEs23uFhemrdz+nQgb3K3oxAIED//uxztHmTK+LgAr4h1dp+PNl/8DANXrkSEg3H3d5Bbx1pCnHtSBWm6nuBvpvaoP1Sn4lqQ09fP9XUbqU/nnoXisIpwET1o287yXru42b5SDZmUYmIiJpbjtGXN26Q04nN4mDs6BHUKCjo1m3/xsqWioIHAAAAAMBEMWWED5vNRi2/P0Ldl3sUk3vHhYtwmQIxU7yiKMRNI3thLjW+sRvuSQAAAAAAY2TKuF2BxIG2B6kK+m5qg/ZLfdCGIBGgH00MyXruU8byAQAAAAAAAJjcQPgAAAAAAAAAJAUIHwAAAAAAAICkAOEDAAAAAAAAkBQgfAAAAAAAAACSAoQPAAAAAAAAQFKA8AEAAAAAAABIChA+AAAAAAAAAEkBwgcAAAAAAAAgKUD4AAAAAAAAACQFCB8AAAAAAACApADhAwAAAAAAAJAUphmGYehfEhF5rnyhfwUAAAAAAACYojgXzNa/SjiWwgcAAAAAAAAAJBK4XQEAAAAAAACSAoQPAAAAAAAAQFKA8AEAAAAAAABICv8PvGh7P25gpnEAAAAASUVORK5CYII=;" parent="1" vertex="1">
          <mxGeometry x="64.5" y="2800" width="535.5" height="292.88" as="geometry" />
        </mxCell>
        <mxCell id="KRvsWD2Y7judpDCp-eMi-47" value="+" style="rounded=0;whiteSpace=wrap;html=1;" parent="1" vertex="1">
          <mxGeometry x="77.25" y="3210" width="510" height="430" as="geometry" />
        </mxCell>
        <mxCell id="KRvsWD2Y7judpDCp-eMi-48" value="" style="rounded=0;whiteSpace=wrap;html=1;" parent="1" vertex="1">
          <mxGeometry x="247.25" y="3320" width="280" height="180" as="geometry" />
        </mxCell>
        <mxCell id="KRvsWD2Y7judpDCp-eMi-49" value="Feedback" style="text;html=1;align=center;verticalAlign=middle;whiteSpace=wrap;rounded=0;" parent="1" vertex="1">
          <mxGeometry x="107.25" y="3308" width="60" height="30" as="geometry" />
        </mxCell>
        <mxCell id="KRvsWD2Y7judpDCp-eMi-50" value="Submit" style="rounded=0;whiteSpace=wrap;html=1;" parent="1" vertex="1">
          <mxGeometry x="147.25" y="3590" width="100" height="40" as="geometry" />
        </mxCell>
        <mxCell id="KRvsWD2Y7judpDCp-eMi-51" value="Cancel" style="rounded=0;whiteSpace=wrap;html=1;" parent="1" vertex="1">
          <mxGeometry x="300" y="3590" width="100" height="40" as="geometry" />
        </mxCell>
        <mxCell id="KRvsWD2Y7judpDCp-eMi-52" value="" style="rounded=0;whiteSpace=wrap;html=1;" parent="1" vertex="1">
          <mxGeometry x="247.25" y="3260" width="270" height="30" as="geometry" />
        </mxCell>
        <mxCell id="KRvsWD2Y7judpDCp-eMi-53" value="Job Code" style="text;html=1;align=center;verticalAlign=middle;whiteSpace=wrap;rounded=0;" parent="1" vertex="1">
          <mxGeometry x="107.25" y="3260" width="60" height="30" as="geometry" />
        </mxCell>
        <mxCell id="KRvsWD2Y7judpDCp-eMi-54" value="&lt;font style=&quot;font-size: 18px;&quot;&gt;Feedback&lt;/font&gt;" style="text;html=1;align=center;verticalAlign=middle;whiteSpace=wrap;rounded=0;" parent="1" vertex="1">
          <mxGeometry x="221.25" y="3210" width="196" height="30" as="geometry" />
        </mxCell>
        <mxCell id="KRvsWD2Y7judpDCp-eMi-57" value="Result" style="text;html=1;align=center;verticalAlign=middle;whiteSpace=wrap;rounded=0;" parent="1" vertex="1">
          <mxGeometry x="140" y="3510" width="60" height="30" as="geometry" />
        </mxCell>
        <mxCell id="KRvsWD2Y7judpDCp-eMi-63" value="" style="html=1;shadow=0;dashed=0;shape=mxgraph.bootstrap.radioButton2;labelPosition=right;verticalLabelPosition=middle;align=left;verticalAlign=middle;gradientColor=#DEDEDE;fillColor=#EDEDED;checked=0;spacing=5;checkedFill=#0085FC;checkedStroke=#ffffff;sketch=0;" parent="1" vertex="1">
          <mxGeometry x="237.25" y="3520" width="10" height="10" as="geometry" />
        </mxCell>
        <mxCell id="KRvsWD2Y7judpDCp-eMi-65" value="Selected" style="text;html=1;align=center;verticalAlign=middle;whiteSpace=wrap;rounded=0;" parent="1" vertex="1">
          <mxGeometry x="250" y="3510" width="60" height="30" as="geometry" />
        </mxCell>
        <mxCell id="KRvsWD2Y7judpDCp-eMi-68" value="Rejected" style="text;html=1;align=center;verticalAlign=middle;whiteSpace=wrap;rounded=0;" parent="1" vertex="1">
          <mxGeometry x="330" y="3510" width="60" height="30" as="geometry" />
        </mxCell>
        <mxCell id="KRvsWD2Y7judpDCp-eMi-69" value="" style="html=1;shadow=0;dashed=0;shape=mxgraph.bootstrap.radioButton2;labelPosition=right;verticalLabelPosition=middle;align=left;verticalAlign=middle;gradientColor=#DEDEDE;fillColor=#EDEDED;checked=0;spacing=5;checkedFill=#0085FC;checkedStroke=#ffffff;sketch=0;" parent="1" vertex="1">
          <mxGeometry x="314" y="3520" width="10" height="10" as="geometry" />
        </mxCell>
        <mxCell id="KRvsWD2Y7judpDCp-eMi-70" value="" style="rounded=0;whiteSpace=wrap;html=1;" parent="1" vertex="1">
          <mxGeometry x="247" y="3540" width="263" height="40" as="geometry" />
        </mxCell>
        <mxCell id="KRvsWD2Y7judpDCp-eMi-71" value="Refer To" style="text;html=1;align=center;verticalAlign=middle;whiteSpace=wrap;rounded=0;" parent="1" vertex="1">
          <mxGeometry x="139" y="3545" width="60" height="30" as="geometry" />
        </mxCell>
        <mxCell id="KRvsWD2Y7judpDCp-eMi-73" value="" style="rounded=0;whiteSpace=wrap;html=1;" parent="1" vertex="1">
          <mxGeometry x="64.5" y="3860" width="550" height="360" as="geometry" />
        </mxCell>
      </root>
    </mxGraphModel>
  </diagram>
</mxfile>
